<?xml version="1.0" encoding="UTF-8" standalone="no"?>
<!DOCTYPE svg PUBLIC "-//W3C//DTD SVG 1.1//EN"
 "http://www.w3.org/Graphics/SVG/1.1/DTD/svg11.dtd">
<!-- Generated by graphviz version 2.36.0 (20140111.2315)
 -->
<!-- Title: G Pages: 1 -->
<svg width="672pt" height="1806pt"
 viewBox="0.00 0.00 672.00 1806.00" xmlns="http://www.w3.org/2000/svg" xmlns:xlink="http://www.w3.org/1999/xlink">
<g id="graph0" class="graph" transform="scale(1 1) rotate(0) translate(4 1802)">
<title>G</title>
<polygon fill="white" stroke="none" points="-4,4 -4,-1802 668,-1802 668,4 -4,4"/>
<g id="clust1" class="cluster"><title>cluster_Global</title>
<path fill="none" stroke="gray" d="M176,-98C176,-98 644,-98 644,-98 650,-98 656,-104 656,-110 656,-110 656,-1778 656,-1778 656,-1784 650,-1790 644,-1790 644,-1790 176,-1790 176,-1790 170,-1790 164,-1784 164,-1778 164,-1778 164,-110 164,-110 164,-104 170,-98 176,-98"/>
<text text-anchor="middle" x="410" y="-1777.2" font-family="Times,serif" font-size="11.00" fill="gray">Global</text>
</g>
<!-- \\ReminderShell -->
<g id="node1" class="node"><title>\\ReminderShell</title>
<polygon fill="none" stroke="black" points="625.5,-1708 542.5,-1708 542.5,-1672 625.5,-1672 625.5,-1708"/>
<text text-anchor="middle" x="584" y="-1687.2" font-family="Times,serif" font-size="11.00">ReminderShell</text>
</g>
<!-- \\AppShell -->
<g id="node2" class="node"><title>\\AppShell</title>
<polygon fill="none" stroke="black" points="415,-304 357,-304 357,-268 415,-268 415,-304"/>
<text text-anchor="middle" x="386" y="-283.2" font-family="Times,serif" font-size="11.00">AppShell</text>
</g>
<!-- \\ReminderShell&#45;&gt;\\AppShell -->
<g id="edge1" class="edge"><title>\\ReminderShell&#45;&gt;\\AppShell</title>
<path fill="none" stroke="black" d="M542.34,-1680.33C533.647,-1676.37 525.45,-1670.81 520,-1663 347.996,-1416.69 618.547,-560.325 448,-313 442.389,-304.862 433.738,-299.15 424.699,-295.15"/>
<polygon fill="none" stroke="black" points="425.841,-291.84 415.25,-291.571 423.362,-298.386 425.841,-291.84"/>
</g>
<!-- \\Shell -->
<g id="node62" class="node"><title>\\Shell</title>
<ellipse fill="none" stroke="black" cx="212" cy="-72" rx="31.3957" ry="18"/>
<text text-anchor="middle" x="212" y="-68.3" font-family="Times,serif" font-size="14.00" fill="gray">\Shell</text>
</g>
<!-- \\AppShell&#45;&gt;\\Shell -->
<g id="edge2" class="edge"><title>\\AppShell&#45;&gt;\\Shell</title>
<path fill="none" stroke="black" d="M356.876,-278.484C345.51,-274.287 332.984,-268.032 324,-259 267.572,-202.275 305.614,-153.391 252,-94 250.222,-92.0309 248.226,-90.1958 246.1,-88.494"/>
<polygon fill="none" stroke="black" points="247.684,-85.3375 237.452,-82.5895 243.737,-91.1186 247.684,-85.3375"/>
</g>
<!-- \\TfsController -->
<g id="node3" class="node"><title>\\TfsController</title>
<polygon fill="none" stroke="black" points="424.5,-1654 347.5,-1654 347.5,-1618 424.5,-1618 424.5,-1654"/>
<text text-anchor="middle" x="386" y="-1633.2" font-family="Times,serif" font-size="11.00">TfsController</text>
</g>
<!-- \\AppController -->
<g id="node13" class="node"><title>\\AppController</title>
<polygon fill="none" stroke="black" points="252,-1060 172,-1060 172,-1024 252,-1024 252,-1060"/>
<text text-anchor="start" x="189" y="-1045.2" font-family="Times,serif" font-size="11.00">«abstract»</text>
<text text-anchor="start" x="180" y="-1033.2" font-family="Times,serif" font-size="11.00">AppController</text>
</g>
<!-- \\TfsController&#45;&gt;\\AppController -->
<g id="edge3" class="edge"><title>\\TfsController&#45;&gt;\\AppController</title>
<path fill="none" stroke="black" d="M347.295,-1625.97C338.518,-1621.99 329.997,-1616.51 324,-1609 255.846,-1523.63 223.313,-1173.07 215.123,-1070.39"/>
<polygon fill="none" stroke="black" points="218.594,-1069.87 214.324,-1060.17 211.615,-1070.42 218.594,-1069.87"/>
</g>
<!-- \\WidgetController -->
<g id="node4" class="node"><title>\\WidgetController</title>
<polygon fill="none" stroke="black" points="433,-1600 339,-1600 339,-1564 433,-1564 433,-1600"/>
<text text-anchor="middle" x="386" y="-1579.2" font-family="Times,serif" font-size="11.00">WidgetController</text>
</g>
<!-- \\WidgetController&#45;&gt;\\AppController -->
<g id="edge4" class="edge"><title>\\WidgetController&#45;&gt;\\AppController</title>
<path fill="none" stroke="black" d="M338.98,-1567.52C333.319,-1564.15 328.096,-1560.03 324,-1555 261.865,-1478.72 225.578,-1166.15 215.74,-1070.17"/>
<polygon fill="none" stroke="black" points="219.207,-1069.66 214.721,-1060.06 212.242,-1070.36 219.207,-1069.66"/>
</g>
<!-- \\AppointmentsController -->
<g id="node5" class="node"><title>\\AppointmentsController</title>
<polygon fill="none" stroke="black" points="447.5,-1546 324.5,-1546 324.5,-1510 447.5,-1510 447.5,-1546"/>
<text text-anchor="middle" x="386" y="-1525.2" font-family="Times,serif" font-size="11.00">AppointmentsController</text>
</g>
<!-- \\AppointmentsController&#45;&gt;\\AppController -->
<g id="edge5" class="edge"><title>\\AppointmentsController&#45;&gt;\\AppController</title>
<path fill="none" stroke="black" d="M333.769,-1509.96C330.148,-1507.35 326.821,-1504.38 324,-1501 267.89,-1433.8 228.147,-1159.27 216.513,-1070.11"/>
<polygon fill="none" stroke="black" points="219.983,-1069.65 215.234,-1060.18 213.041,-1070.55 219.983,-1069.65"/>
</g>
<!-- \\RosbridgesController -->
<g id="node6" class="node"><title>\\RosbridgesController</title>
<polygon fill="none" stroke="black" points="441.5,-1492 330.5,-1492 330.5,-1456 441.5,-1456 441.5,-1492"/>
<text text-anchor="middle" x="386" y="-1471.2" font-family="Times,serif" font-size="11.00">RosbridgesController</text>
</g>
<!-- \\RosbridgesController&#45;&gt;\\AppController -->
<g id="edge6" class="edge"><title>\\RosbridgesController&#45;&gt;\\AppController</title>
<path fill="none" stroke="black" d="M333.88,-1455.86C330.234,-1453.28 326.871,-1450.34 324,-1447 226.499,-1333.75 213.972,-1142.21 212.851,-1070.35"/>
<polygon fill="none" stroke="black" points="216.35,-1070.23 212.759,-1060.26 209.351,-1070.29 216.35,-1070.23"/>
</g>
<!-- \\ConditionsController -->
<g id="node7" class="node"><title>\\ConditionsController</title>
<polygon fill="none" stroke="black" points="440.5,-1438 331.5,-1438 331.5,-1402 440.5,-1402 440.5,-1438"/>
<text text-anchor="middle" x="386" y="-1417.2" font-family="Times,serif" font-size="11.00">ConditionsController</text>
</g>
<!-- \\ConditionsController&#45;&gt;\\AppController -->
<g id="edge7" class="edge"><title>\\ConditionsController&#45;&gt;\\AppController</title>
<path fill="none" stroke="black" d="M334.31,-1401.94C330.523,-1399.33 327.013,-1396.37 324,-1393 238.365,-1297.35 218.777,-1135.69 214.312,-1070.51"/>
<polygon fill="none" stroke="black" points="217.785,-1069.96 213.679,-1060.19 210.798,-1070.39 217.785,-1069.96"/>
</g>
<!-- \\ExperimentController -->
<g id="node8" class="node"><title>\\ExperimentController</title>
<polygon fill="none" stroke="black" points="442.5,-1384 329.5,-1384 329.5,-1348 442.5,-1348 442.5,-1384"/>
<text text-anchor="middle" x="386" y="-1363.2" font-family="Times,serif" font-size="11.00">ExperimentController</text>
</g>
<!-- \\ExperimentController&#45;&gt;\\AppController -->
<g id="edge8" class="edge"><title>\\ExperimentController&#45;&gt;\\AppController</title>
<path fill="none" stroke="black" d="M334.789,-1347.97C330.851,-1345.35 327.178,-1342.37 324,-1339 250.042,-1260.54 224.277,-1128.27 216.254,-1070.47"/>
<polygon fill="none" stroke="black" points="219.685,-1069.72 214.915,-1060.25 212.744,-1070.62 219.685,-1069.72"/>
</g>
<!-- \\EnvironmentsController -->
<g id="node9" class="node"><title>\\EnvironmentsController</title>
<polygon fill="none" stroke="black" points="447,-1330 325,-1330 325,-1294 447,-1294 447,-1330"/>
<text text-anchor="middle" x="386" y="-1309.2" font-family="Times,serif" font-size="11.00">EnvironmentsController</text>
</g>
<!-- \\EnvironmentsController&#45;&gt;\\AppController -->
<g id="edge9" class="edge"><title>\\EnvironmentsController&#45;&gt;\\AppController</title>
<path fill="none" stroke="black" d="M335.339,-1293.92C331.237,-1291.3 327.377,-1288.34 324,-1285 261.457,-1223.19 230.671,-1119.65 218.907,-1070.1"/>
<polygon fill="none" stroke="black" points="222.262,-1069.06 216.62,-1060.1 215.438,-1070.63 222.262,-1069.06"/>
</g>
<!-- \\PagesController -->
<g id="node10" class="node"><title>\\PagesController</title>
<polygon fill="none" stroke="black" points="430,-1276 342,-1276 342,-1240 430,-1240 430,-1276"/>
<text text-anchor="middle" x="386" y="-1255.2" font-family="Times,serif" font-size="11.00">PagesController</text>
</g>
<!-- \\PagesController&#45;&gt;\\AppController -->
<g id="edge10" class="edge"><title>\\PagesController&#45;&gt;\\AppController</title>
<path fill="none" stroke="black" d="M341.918,-1243.05C335.496,-1239.7 329.273,-1235.7 324,-1231 272.683,-1185.24 238.51,-1109.92 222.844,-1069.57"/>
<polygon fill="none" stroke="black" points="226.074,-1068.21 219.261,-1060.1 219.527,-1070.69 226.074,-1068.21"/>
</g>
<!-- \\GlobalController -->
<g id="node11" class="node"><title>\\GlobalController</title>
<polygon fill="none" stroke="black" points="432,-1222 340,-1222 340,-1186 432,-1186 432,-1222"/>
<text text-anchor="middle" x="386" y="-1201.2" font-family="Times,serif" font-size="11.00">GlobalController</text>
</g>
<!-- \\GlobalController&#45;&gt;\\AppController -->
<g id="edge11" class="edge"><title>\\GlobalController&#45;&gt;\\AppController</title>
<path fill="none" stroke="black" d="M339.981,-1187C334.366,-1184.05 328.888,-1180.71 324,-1177 283.711,-1146.39 248.813,-1098.38 229.377,-1068.62"/>
<polygon fill="none" stroke="black" points="232.198,-1066.54 223.852,-1060.01 226.307,-1070.32 232.198,-1066.54"/>
</g>
<!-- \\ContentController -->
<g id="node12" class="node"><title>\\ContentController</title>
<polygon fill="none" stroke="black" points="434,-1168 338,-1168 338,-1132 434,-1132 434,-1168"/>
<text text-anchor="middle" x="386" y="-1147.2" font-family="Times,serif" font-size="11.00">ContentController</text>
</g>
<!-- \\ContentController&#45;&gt;\\AppController -->
<g id="edge12" class="edge"><title>\\ContentController&#45;&gt;\\AppController</title>
<path fill="none" stroke="black" d="M341.114,-1131.94C335.262,-1129.14 329.416,-1126.13 324,-1123 295.054,-1106.29 264.546,-1083.61 242.854,-1066.5"/>
<polygon fill="none" stroke="black" points="244.997,-1063.73 234.994,-1060.24 240.635,-1069.21 244.997,-1063.73"/>
</g>
<!-- \\Controller -->
<g id="node63" class="node"><title>\\Controller</title>
<ellipse fill="none" stroke="black" cx="50" cy="-1042" rx="49.2915" ry="18"/>
<text text-anchor="middle" x="50" y="-1038.3" font-family="Times,serif" font-size="14.00" fill="gray">\Controller</text>
</g>
<!-- \\AppController&#45;&gt;\\Controller -->
<g id="edge13" class="edge"><title>\\AppController&#45;&gt;\\Controller</title>
<path fill="none" stroke="black" d="M171.86,-1042C153.096,-1042 130.234,-1042 109.464,-1042"/>
<polygon fill="none" stroke="black" points="109.463,-1038.5 99.4633,-1042 109.463,-1045.5 109.463,-1038.5"/>
</g>
<!-- \\BasicInterfaceController -->
<g id="node14" class="node"><title>\\BasicInterfaceController</title>
<polygon fill="none" stroke="black" points="648,-1762 520,-1762 520,-1726 648,-1726 648,-1762"/>
<text text-anchor="middle" x="584" y="-1741.2" font-family="Times,serif" font-size="11.00">BasicInterfaceController</text>
</g>
<!-- \\InterfaceController -->
<g id="node26" class="node"><title>\\InterfaceController</title>
<polygon fill="none" stroke="black" points="437,-1114 335,-1114 335,-1078 437,-1078 437,-1114"/>
<text text-anchor="start" x="363" y="-1099.2" font-family="Times,serif" font-size="11.00">«abstract»</text>
<text text-anchor="start" x="343" y="-1087.2" font-family="Times,serif" font-size="11.00">InterfaceController</text>
</g>
<!-- \\BasicInterfaceController&#45;&gt;\\InterfaceController -->
<g id="edge14" class="edge"><title>\\BasicInterfaceController&#45;&gt;\\InterfaceController</title>
<path fill="none" stroke="black" d="M528.796,-1725.83C525.491,-1723.26 522.498,-1720.33 520,-1717 360.491,-1504.22 606.25,-1336.72 448,-1123 447.074,-1121.75 446.077,-1120.56 445.019,-1119.42"/>
<polygon fill="none" stroke="black" points="447.1,-1116.59 437.261,-1112.66 442.503,-1121.87 447.1,-1116.59"/>
</g>
<!-- \\EmailsController -->
<g id="node15" class="node"><title>\\EmailsController</title>
<polygon fill="none" stroke="black" points="432,-1060 340,-1060 340,-1024 432,-1024 432,-1060"/>
<text text-anchor="middle" x="386" y="-1039.2" font-family="Times,serif" font-size="11.00">EmailsController</text>
</g>
<!-- \\EmailsController&#45;&gt;\\AppController -->
<g id="edge15" class="edge"><title>\\EmailsController&#45;&gt;\\AppController</title>
<path fill="none" stroke="black" d="M339.809,-1042C315.946,-1042 286.626,-1042 262.192,-1042"/>
<polygon fill="none" stroke="black" points="262.05,-1038.5 252.05,-1042 262.05,-1045.5 262.05,-1038.5"/>
</g>
<!-- \\RosController -->
<g id="node16" class="node"><title>\\RosController</title>
<polygon fill="none" stroke="black" points="425.5,-1006 346.5,-1006 346.5,-970 425.5,-970 425.5,-1006"/>
<text text-anchor="middle" x="386" y="-985.2" font-family="Times,serif" font-size="11.00">RosController</text>
</g>
<!-- \\RosController&#45;&gt;\\AppController -->
<g id="edge16" class="edge"><title>\\RosController&#45;&gt;\\AppController</title>
<path fill="none" stroke="black" d="M346.4,-1000.12C321.348,-1007.98 288.491,-1018.3 261.655,-1026.72"/>
<polygon fill="none" stroke="black" points="260.559,-1023.4 252.066,-1029.73 262.656,-1030.08 260.559,-1023.4"/>
</g>
<!-- \\ResourcesController -->
<g id="node17" class="node"><title>\\ResourcesController</title>
<polygon fill="none" stroke="black" points="440,-952 332,-952 332,-916 440,-916 440,-952"/>
<text text-anchor="middle" x="386" y="-931.2" font-family="Times,serif" font-size="11.00">ResourcesController</text>
</g>
<!-- \\ResourcesController&#45;&gt;\\AppController -->
<g id="edge17" class="edge"><title>\\ResourcesController&#45;&gt;\\AppController</title>
<path fill="none" stroke="black" d="M341.114,-952.063C335.262,-954.864 329.416,-957.873 324,-961 295.054,-977.71 264.546,-1000.39 242.854,-1017.5"/>
<polygon fill="none" stroke="black" points="240.635,-1014.79 234.994,-1023.76 244.997,-1020.27 240.635,-1014.79"/>
</g>
<!-- \\StudiesController -->
<g id="node18" class="node"><title>\\StudiesController</title>
<polygon fill="none" stroke="black" points="433,-898 339,-898 339,-862 433,-862 433,-898"/>
<text text-anchor="middle" x="386" y="-877.2" font-family="Times,serif" font-size="11.00">StudiesController</text>
</g>
<!-- \\StudiesController&#45;&gt;\\AppController -->
<g id="edge18" class="edge"><title>\\StudiesController&#45;&gt;\\AppController</title>
<path fill="none" stroke="black" d="M338.712,-897.678C333.542,-900.459 328.519,-903.567 324,-907 283.711,-937.607 248.813,-985.619 229.377,-1015.38"/>
<polygon fill="none" stroke="black" points="226.307,-1013.68 223.852,-1023.99 232.198,-1017.46 226.307,-1013.68"/>
</g>
<!-- \\TeleopsController -->
<g id="node19" class="node"><title>\\TeleopsController</title>
<polygon fill="none" stroke="black" points="434.5,-844 337.5,-844 337.5,-808 434.5,-808 434.5,-844"/>
<text text-anchor="middle" x="386" y="-823.2" font-family="Times,serif" font-size="11.00">TeleopsController</text>
</g>
<!-- \\TeleopsController&#45;&gt;\\AppController -->
<g id="edge19" class="edge"><title>\\TeleopsController&#45;&gt;\\AppController</title>
<path fill="none" stroke="black" d="M337.228,-843.54C332.493,-846.311 327.976,-849.454 324,-853 272.683,-898.761 238.51,-974.079 222.844,-1014.43"/>
<polygon fill="none" stroke="black" points="219.527,-1013.31 219.261,-1023.9 226.074,-1015.79 219.527,-1013.31"/>
</g>
<!-- \\UsersController -->
<g id="node20" class="node"><title>\\UsersController</title>
<polygon fill="none" stroke="black" points="430,-790 342,-790 342,-754 430,-754 430,-790"/>
<text text-anchor="middle" x="386" y="-769.2" font-family="Times,serif" font-size="11.00">UsersController</text>
</g>
<!-- \\UsersController&#45;&gt;\\AppController -->
<g id="edge20" class="edge"><title>\\UsersController&#45;&gt;\\AppController</title>
<path fill="none" stroke="black" d="M341.8,-786.32C335.318,-789.766 329.107,-793.953 324,-799 261.457,-860.81 230.671,-964.345 218.907,-1013.9"/>
<polygon fill="none" stroke="black" points="215.438,-1013.37 216.62,-1023.9 222.262,-1014.94 215.438,-1013.37"/>
</g>
<!-- \\LogsController -->
<g id="node21" class="node"><title>\\LogsController</title>
<polygon fill="none" stroke="black" points="427.5,-736 344.5,-736 344.5,-700 427.5,-700 427.5,-736"/>
<text text-anchor="middle" x="386" y="-715.2" font-family="Times,serif" font-size="11.00">LogsController</text>
</g>
<!-- \\LogsController&#45;&gt;\\AppController -->
<g id="edge21" class="edge"><title>\\LogsController&#45;&gt;\\AppController</title>
<path fill="none" stroke="black" d="M344.31,-730.547C336.844,-734.275 329.64,-739.017 324,-745 250.042,-823.459 224.277,-955.729 216.254,-1013.53"/>
<polygon fill="none" stroke="black" points="212.744,-1013.38 214.915,-1023.75 219.685,-1014.28 212.744,-1013.38"/>
</g>
<!-- \\ImsController -->
<g id="node22" class="node"><title>\\ImsController</title>
<polygon fill="none" stroke="black" points="425,-682 347,-682 347,-646 425,-646 425,-682"/>
<text text-anchor="middle" x="386" y="-661.2" font-family="Times,serif" font-size="11.00">ImsController</text>
</g>
<!-- \\ImsController&#45;&gt;\\AppController -->
<g id="edge22" class="edge"><title>\\ImsController&#45;&gt;\\AppController</title>
<path fill="none" stroke="black" d="M346.911,-674.95C338.454,-678.872 330.18,-684.097 324,-691 238.365,-786.653 218.777,-948.312 214.312,-1013.49"/>
<polygon fill="none" stroke="black" points="210.798,-1013.61 213.679,-1023.81 217.785,-1014.04 210.798,-1013.61"/>
</g>
<!-- \\SlotsController -->
<g id="node23" class="node"><title>\\SlotsController</title>
<polygon fill="none" stroke="black" points="427.5,-628 344.5,-628 344.5,-592 427.5,-592 427.5,-628"/>
<text text-anchor="middle" x="386" y="-607.2" font-family="Times,serif" font-size="11.00">SlotsController</text>
</g>
<!-- \\SlotsController&#45;&gt;\\AppController -->
<g id="edge23" class="edge"><title>\\SlotsController&#45;&gt;\\AppController</title>
<path fill="none" stroke="black" d="M344.193,-622C336.646,-625.78 329.44,-630.681 324,-637 226.499,-750.252 213.972,-941.793 212.851,-1013.65"/>
<polygon fill="none" stroke="black" points="209.351,-1013.71 212.759,-1023.74 216.35,-1013.77 209.351,-1013.71"/>
</g>
<!-- \\SubscriptionsController -->
<g id="node24" class="node"><title>\\SubscriptionsController</title>
<polygon fill="none" stroke="black" points="446.5,-574 325.5,-574 325.5,-538 446.5,-538 446.5,-574"/>
<text text-anchor="middle" x="386" y="-553.2" font-family="Times,serif" font-size="11.00">SubscriptionsController</text>
</g>
<!-- \\SubscriptionsController&#45;&gt;\\AppController -->
<g id="edge24" class="edge"><title>\\SubscriptionsController&#45;&gt;\\AppController</title>
<path fill="none" stroke="black" d="M333.769,-574.043C330.148,-576.652 326.821,-579.622 324,-583 267.89,-650.202 228.147,-924.73 216.513,-1013.89"/>
<polygon fill="none" stroke="black" points="213.041,-1013.45 215.234,-1023.82 219.983,-1014.35 213.041,-1013.45"/>
</g>
<!-- \\StreamsController -->
<g id="node25" class="node"><title>\\StreamsController</title>
<polygon fill="none" stroke="black" points="435,-520 337,-520 337,-484 435,-484 435,-520"/>
<text text-anchor="middle" x="386" y="-499.2" font-family="Times,serif" font-size="11.00">StreamsController</text>
</g>
<!-- \\StreamsController&#45;&gt;\\AppController -->
<g id="edge25" class="edge"><title>\\StreamsController&#45;&gt;\\AppController</title>
<path fill="none" stroke="black" d="M336.879,-517.781C332.031,-520.896 327.584,-524.6 324,-529 261.865,-605.275 225.578,-917.848 215.74,-1013.83"/>
<polygon fill="none" stroke="black" points="212.242,-1013.64 214.721,-1023.94 219.207,-1014.34 212.242,-1013.64"/>
</g>
<!-- \\InterfaceController&#45;&gt;\\AppController -->
<g id="edge26" class="edge"><title>\\InterfaceController&#45;&gt;\\AppController</title>
<path fill="none" stroke="black" d="M334.788,-1080.24C311.812,-1073.02 284.689,-1064.51 261.878,-1057.35"/>
<polygon fill="none" stroke="black" points="262.651,-1053.92 252.061,-1054.26 260.554,-1060.6 262.651,-1053.92"/>
</g>
<!-- \\MjpegsController -->
<g id="node27" class="node"><title>\\MjpegsController</title>
<polygon fill="none" stroke="black" points="433.5,-466 338.5,-466 338.5,-430 433.5,-430 433.5,-466"/>
<text text-anchor="middle" x="386" y="-445.2" font-family="Times,serif" font-size="11.00">MjpegsController</text>
</g>
<!-- \\MjpegsController&#45;&gt;\\AppController -->
<g id="edge27" class="edge"><title>\\MjpegsController&#45;&gt;\\AppController</title>
<path fill="none" stroke="black" d="M338.285,-462.774C332.872,-466.086 327.902,-470.112 324,-475 255.846,-560.373 223.313,-910.931 215.123,-1013.61"/>
<polygon fill="none" stroke="black" points="211.615,-1013.58 214.324,-1023.83 218.594,-1014.13 211.615,-1013.58"/>
</g>
<!-- \\ArticlesController -->
<g id="node28" class="node"><title>\\ArticlesController</title>
<polygon fill="none" stroke="black" points="435,-412 337,-412 337,-376 435,-376 435,-412"/>
<text text-anchor="middle" x="386" y="-391.2" font-family="Times,serif" font-size="11.00">ArticlesController</text>
</g>
<!-- \\ArticlesController&#45;&gt;\\AppController -->
<g id="edge28" class="edge"><title>\\ArticlesController&#45;&gt;\\AppController</title>
<path fill="none" stroke="black" d="M336.722,-409.655C331.901,-412.792 327.504,-416.536 324,-421 249.715,-515.639 221.18,-905.229 214.581,-1013.8"/>
<polygon fill="none" stroke="black" points="211.077,-1013.78 213.978,-1023.97 218.064,-1014.19 211.077,-1013.78"/>
</g>
<!-- \\SettingsController -->
<g id="node29" class="node"><title>\\SettingsController</title>
<polygon fill="none" stroke="black" points="434.5,-358 337.5,-358 337.5,-322 434.5,-322 434.5,-358"/>
<text text-anchor="middle" x="386" y="-337.2" font-family="Times,serif" font-size="11.00">SettingsController</text>
</g>
<!-- \\SettingsController&#45;&gt;\\AppController -->
<g id="edge29" class="edge"><title>\\SettingsController&#45;&gt;\\AppController</title>
<path fill="none" stroke="black" d="M337.252,-355.226C332.21,-358.447 327.615,-362.329 324,-367 243.649,-470.844 219.292,-898.88 214.146,-1013.6"/>
<polygon fill="none" stroke="black" points="210.644,-1013.56 213.706,-1023.7 217.637,-1013.87 210.644,-1013.56"/>
</g>
<!-- \\IfacesController -->
<g id="node30" class="node"><title>\\IfacesController</title>
<polygon fill="none" stroke="black" points="430.5,-1762 341.5,-1762 341.5,-1726 430.5,-1726 430.5,-1762"/>
<text text-anchor="middle" x="386" y="-1741.2" font-family="Times,serif" font-size="11.00">IfacesController</text>
</g>
<!-- \\IfacesController&#45;&gt;\\AppController -->
<g id="edge30" class="edge"><title>\\IfacesController&#45;&gt;\\AppController</title>
<path fill="none" stroke="black" d="M341.494,-1731.28C334.807,-1727.62 328.607,-1722.95 324,-1717 243.649,-1613.16 219.292,-1185.12 214.146,-1070.4"/>
<polygon fill="none" stroke="black" points="217.637,-1070.13 213.706,-1060.3 210.644,-1070.44 217.637,-1070.13"/>
</g>
<!-- \\MarkersController -->
<g id="node31" class="node"><title>\\MarkersController</title>
<polygon fill="none" stroke="black" points="435.5,-1708 336.5,-1708 336.5,-1672 435.5,-1672 435.5,-1708"/>
<text text-anchor="middle" x="386" y="-1687.2" font-family="Times,serif" font-size="11.00">MarkersController</text>
</g>
<!-- \\MarkersController&#45;&gt;\\AppController -->
<g id="edge31" class="edge"><title>\\MarkersController&#45;&gt;\\AppController</title>
<path fill="none" stroke="black" d="M336.427,-1674.15C331.722,-1671.06 327.432,-1667.37 324,-1663 249.715,-1568.36 221.18,-1178.77 214.581,-1070.2"/>
<polygon fill="none" stroke="black" points="218.064,-1069.81 213.978,-1060.03 211.077,-1070.22 218.064,-1069.81"/>
</g>
<!-- \\EmailConfig -->
<g id="node32" class="node"><title>\\EmailConfig</title>
<polygon fill="none" stroke="black" points="620.5,-1654 547.5,-1654 547.5,-1618 620.5,-1618 620.5,-1654"/>
<text text-anchor="middle" x="584" y="-1633.2" font-family="Times,serif" font-size="11.00">EmailConfig</text>
</g>
<!-- \\DATABASE_CONFIG -->
<g id="node33" class="node"><title>\\DATABASE_CONFIG</title>
<polygon fill="none" stroke="black" points="646,-1600 522,-1600 522,-1564 646,-1564 646,-1600"/>
<text text-anchor="middle" x="584" y="-1579.2" font-family="Times,serif" font-size="11.00">DATABASE_CONFIG</text>
</g>
<!-- \\Appointment -->
<g id="node34" class="node"><title>\\Appointment</title>
<polygon fill="none" stroke="black" points="621,-1222 547,-1222 547,-1186 621,-1186 621,-1222"/>
<text text-anchor="middle" x="584" y="-1201.2" font-family="Times,serif" font-size="11.00">Appointment</text>
</g>
<!-- \\AppModel -->
<g id="node43" class="node"><title>\\AppModel</title>
<polygon fill="none" stroke="black" points="418,-250 354,-250 354,-214 418,-214 418,-250"/>
<text text-anchor="middle" x="386" y="-229.2" font-family="Times,serif" font-size="11.00">AppModel</text>
</g>
<!-- \\Appointment&#45;&gt;\\AppModel -->
<g id="edge32" class="edge"><title>\\Appointment&#45;&gt;\\AppModel</title>
<path fill="none" stroke="black" d="M546.745,-1196.04C536.527,-1192.02 526.449,-1185.99 520,-1177 400.757,-1010.71 566.259,-425.994 448,-259 442.949,-251.867 435.574,-246.593 427.686,-242.702"/>
<polygon fill="none" stroke="black" points="428.871,-239.404 418.297,-238.741 426.15,-245.853 428.871,-239.404"/>
</g>
<!-- \\Protocol -->
<g id="node35" class="node"><title>\\Protocol</title>
<polygon fill="none" stroke="black" points="611,-1168 557,-1168 557,-1132 611,-1132 611,-1168"/>
<text text-anchor="middle" x="584" y="-1147.2" font-family="Times,serif" font-size="11.00">Protocol</text>
</g>
<!-- \\Protocol&#45;&gt;\\AppModel -->
<g id="edge33" class="edge"><title>\\Protocol&#45;&gt;\\AppModel</title>
<path fill="none" stroke="black" d="M556.905,-1145.42C543.678,-1141.68 528.628,-1134.97 520,-1123 407.346,-966.702 559.729,-415.961 448,-259 442.931,-251.879 435.55,-246.611 427.66,-242.721"/>
<polygon fill="none" stroke="black" points="428.846,-239.422 418.272,-238.759 426.124,-245.872 428.846,-239.422"/>
</g>
<!-- \\Teleop -->
<g id="node36" class="node"><title>\\Teleop</title>
<polygon fill="none" stroke="black" points="611,-1114 557,-1114 557,-1078 611,-1078 611,-1114"/>
<text text-anchor="middle" x="584" y="-1093.2" font-family="Times,serif" font-size="11.00">Teleop</text>
</g>
<!-- \\Teleop&#45;&gt;\\AppModel -->
<g id="edge34" class="edge"><title>\\Teleop&#45;&gt;\\AppModel</title>
<path fill="none" stroke="black" d="M556.932,-1091.4C543.712,-1087.65 528.661,-1080.95 520,-1069 307.867,-776.385 658.402,-552.862 448,-259 442.912,-251.893 435.522,-246.63 427.631,-242.742"/>
<polygon fill="none" stroke="black" points="428.817,-239.444 418.243,-238.78 426.095,-245.893 428.817,-239.444"/>
</g>
<!-- \\Environment -->
<g id="node37" class="node"><title>\\Environment</title>
<polygon fill="none" stroke="black" points="620.5,-1060 547.5,-1060 547.5,-1024 620.5,-1024 620.5,-1060"/>
<text text-anchor="middle" x="584" y="-1039.2" font-family="Times,serif" font-size="11.00">Environment</text>
</g>
<!-- \\Environment&#45;&gt;\\AppModel -->
<g id="edge35" class="edge"><title>\\Environment&#45;&gt;\\AppModel</title>
<path fill="none" stroke="black" d="M547.496,-1034.23C537.058,-1030.2 526.664,-1024.13 520,-1015 321.035,-742.359 645.352,-532.811 448,-259 442.889,-251.91 435.491,-246.653 427.597,-242.766"/>
<polygon fill="none" stroke="black" points="428.785,-239.468 418.211,-238.803 426.062,-245.917 428.785,-239.468"/>
</g>
<!-- \\Im -->
<g id="node38" class="node"><title>\\Im</title>
<polygon fill="none" stroke="black" points="611,-1006 557,-1006 557,-970 611,-970 611,-1006"/>
<text text-anchor="middle" x="584" y="-985.2" font-family="Times,serif" font-size="11.00">Im</text>
</g>
<!-- \\Im&#45;&gt;\\AppModel -->
<g id="edge36" class="edge"><title>\\Im&#45;&gt;\\AppModel</title>
<path fill="none" stroke="black" d="M556.996,-983.349C543.796,-979.594 528.741,-972.888 520,-961 334.196,-708.324 632.308,-512.768 448,-259 442.864,-251.928 435.455,-246.679 427.559,-242.793"/>
<polygon fill="none" stroke="black" points="428.747,-239.496 418.174,-238.83 426.024,-245.945 428.747,-239.496"/>
</g>
<!-- \\Log -->
<g id="node39" class="node"><title>\\Log</title>
<polygon fill="none" stroke="black" points="611,-952 557,-952 557,-916 611,-916 611,-952"/>
<text text-anchor="middle" x="584" y="-931.2" font-family="Times,serif" font-size="11.00">Log</text>
</g>
<!-- \\Log&#45;&gt;\\AppModel -->
<g id="edge37" class="edge"><title>\\Log&#45;&gt;\\AppModel</title>
<path fill="none" stroke="black" d="M556.717,-929.228C543.605,-925.447 528.721,-918.755 520,-907 347.349,-674.278 619.274,-492.738 448,-259 442.834,-251.95 435.412,-246.71 427.514,-242.826"/>
<polygon fill="none" stroke="black" points="428.704,-239.529 418.13,-238.862 425.98,-245.977 428.704,-239.529"/>
</g>
<!-- \\User -->
<g id="node40" class="node"><title>\\User</title>
<polygon fill="none" stroke="black" points="611,-898 557,-898 557,-862 611,-862 611,-898"/>
<text text-anchor="middle" x="584" y="-877.2" font-family="Times,serif" font-size="11.00">User</text>
</g>
<!-- \\User&#45;&gt;\\AppModel -->
<g id="edge38" class="edge"><title>\\User&#45;&gt;\\AppModel</title>
<path fill="none" stroke="black" d="M556.764,-875.192C543.666,-871.402 528.779,-864.711 520,-853 360.491,-640.216 606.25,-472.722 448,-259 442.799,-251.976 435.363,-246.746 427.462,-242.864"/>
<polygon fill="none" stroke="black" points="428.653,-239.568 418.079,-238.899 425.928,-246.016 428.653,-239.568"/>
</g>
<!-- \\Stream -->
<g id="node41" class="node"><title>\\Stream</title>
<polygon fill="none" stroke="black" points="611,-844 557,-844 557,-808 611,-808 611,-844"/>
<text text-anchor="middle" x="584" y="-823.2" font-family="Times,serif" font-size="11.00">Stream</text>
</g>
<!-- \\Stream&#45;&gt;\\AppModel -->
<g id="edge39" class="edge"><title>\\Stream&#45;&gt;\\AppModel</title>
<path fill="none" stroke="black" d="M556.82,-821.15C543.738,-817.347 528.849,-810.659 520,-799 373.619,-606.136 593.24,-452.725 448,-259 442.757,-252.007 435.304,-246.79 427.4,-242.911"/>
<polygon fill="none" stroke="black" points="428.592,-239.615 418.019,-238.944 425.866,-246.062 428.592,-239.615"/>
</g>
<!-- \\Email -->
<g id="node42" class="node"><title>\\Email</title>
<polygon fill="none" stroke="black" points="611,-790 557,-790 557,-754 611,-754 611,-790"/>
<text text-anchor="middle" x="584" y="-769.2" font-family="Times,serif" font-size="11.00">Email</text>
</g>
<!-- \\Email&#45;&gt;\\AppModel -->
<g id="edge40" class="edge"><title>\\Email&#45;&gt;\\AppModel</title>
<path fill="none" stroke="black" d="M556.889,-767.098C543.826,-763.28 528.933,-756.594 520,-745 386.727,-572.031 580.249,-432.753 448,-259 442.757,-252.111 435.375,-246.944 427.55,-243.079"/>
<polygon fill="none" stroke="black" points="428.834,-239.822 418.262,-239.116 426.086,-246.26 428.834,-239.822"/>
</g>
<!-- \\Model -->
<g id="node64" class="node"><title>\\Model</title>
<ellipse fill="none" stroke="black" cx="212" cy="-18" rx="36.2938" ry="18"/>
<text text-anchor="middle" x="212" y="-14.3" font-family="Times,serif" font-size="14.00" fill="gray">\Model</text>
</g>
<!-- \\AppModel&#45;&gt;\\Model -->
<g id="edge41" class="edge"><title>\\AppModel&#45;&gt;\\Model</title>
<path fill="none" stroke="black" d="M375.053,-213.963C355.018,-178.693 306.996,-99.3032 252,-45 249.522,-42.5536 246.799,-40.1788 243.979,-37.9186"/>
<polygon fill="none" stroke="black" points="246.007,-35.0647 235.9,-31.8884 241.82,-40.6746 246.007,-35.0647"/>
</g>
<!-- \\Collada -->
<g id="node44" class="node"><title>\\Collada</title>
<polygon fill="none" stroke="black" points="611,-736 557,-736 557,-700 611,-700 611,-736"/>
<text text-anchor="middle" x="584" y="-715.2" font-family="Times,serif" font-size="11.00">Collada</text>
</g>
<!-- \\Collada&#45;&gt;\\AppModel -->
<g id="edge42" class="edge"><title>\\Collada&#45;&gt;\\AppModel</title>
<path fill="none" stroke="black" d="M556.973,-713.032C543.934,-709.196 529.038,-702.513 520,-691 399.81,-537.891 567.284,-412.816 448,-259 442.695,-252.159 435.287,-247.011 427.457,-243.151"/>
<polygon fill="none" stroke="black" points="428.742,-239.894 418.171,-239.186 425.994,-246.332 428.742,-239.894"/>
</g>
<!-- \\Slot -->
<g id="node45" class="node"><title>\\Slot</title>
<polygon fill="none" stroke="black" points="611,-682 557,-682 557,-646 611,-646 611,-682"/>
<text text-anchor="middle" x="584" y="-661.2" font-family="Times,serif" font-size="11.00">Slot</text>
</g>
<!-- \\Slot&#45;&gt;\\AppModel -->
<g id="edge43" class="edge"><title>\\Slot&#45;&gt;\\AppModel</title>
<path fill="none" stroke="black" d="M556.763,-658.852C543.83,-654.978 529.095,-648.315 520,-637 412.855,-503.704 554.356,-392.926 448,-259 442.616,-252.221 435.176,-247.098 427.339,-243.243"/>
<polygon fill="none" stroke="black" points="428.627,-239.988 418.056,-239.277 425.876,-246.425 428.627,-239.988"/>
</g>
<!-- \\Page -->
<g id="node46" class="node"><title>\\Page</title>
<polygon fill="none" stroke="black" points="611,-628 557,-628 557,-592 611,-592 611,-628"/>
<text text-anchor="middle" x="584" y="-607.2" font-family="Times,serif" font-size="11.00">Page</text>
</g>
<!-- \\Page&#45;&gt;\\AppModel -->
<g id="edge44" class="edge"><title>\\Page&#45;&gt;\\AppModel</title>
<path fill="none" stroke="black" d="M556.904,-604.737C544.009,-600.831 529.267,-594.175 520,-583 425.843,-469.446 541.485,-373.108 448,-259 442.566,-252.368 435.174,-247.314 427.41,-243.479"/>
<polygon fill="none" stroke="black" points="428.79,-240.262 418.221,-239.517 426.018,-246.69 428.79,-240.262"/>
</g>
<!-- \\Condition -->
<g id="node47" class="node"><title>\\Condition</title>
<polygon fill="none" stroke="black" points="613.5,-574 554.5,-574 554.5,-538 613.5,-538 613.5,-574"/>
<text text-anchor="middle" x="584" y="-553.2" font-family="Times,serif" font-size="11.00">Condition</text>
</g>
<!-- \\Condition&#45;&gt;\\AppModel -->
<g id="edge45" class="edge"><title>\\Condition&#45;&gt;\\AppModel</title>
<path fill="none" stroke="black" d="M554.224,-549.657C542.104,-545.621 528.798,-539.169 520,-529 438.741,-435.08 528.703,-353.398 448,-259 442.429,-252.483 434.978,-247.478 427.202,-243.654"/>
<polygon fill="none" stroke="black" points="428.584,-240.439 418.016,-239.689 425.81,-246.865 428.584,-240.439"/>
</g>
<!-- \\Subscription -->
<g id="node48" class="node"><title>\\Subscription</title>
<polygon fill="none" stroke="black" points="619.5,-520 548.5,-520 548.5,-484 619.5,-484 619.5,-520"/>
<text text-anchor="middle" x="584" y="-499.2" font-family="Times,serif" font-size="11.00">Subscription</text>
</g>
<!-- \\Subscription&#45;&gt;\\AppModel -->
<g id="edge46" class="edge"><title>\\Subscription&#45;&gt;\\AppModel</title>
<path fill="none" stroke="black" d="M548.343,-493.136C538.08,-489.058 527.574,-483.231 520,-475 451.481,-400.534 516.078,-333.869 448,-259 442.35,-252.786 435.006,-247.927 427.382,-244.152"/>
<polygon fill="none" stroke="black" points="428.602,-240.866 418.037,-240.068 425.799,-247.28 428.602,-240.866"/>
</g>
<!-- \\Tf -->
<g id="node49" class="node"><title>\\Tf</title>
<polygon fill="none" stroke="black" points="611,-466 557,-466 557,-430 611,-430 611,-466"/>
<text text-anchor="middle" x="584" y="-445.2" font-family="Times,serif" font-size="11.00">Tf</text>
</g>
<!-- \\Tf&#45;&gt;\\AppModel -->
<g id="edge47" class="edge"><title>\\Tf&#45;&gt;\\AppModel</title>
<path fill="none" stroke="black" d="M556.843,-441.624C544.401,-437.48 530.08,-430.946 520,-421 463.916,-365.659 503.756,-314.671 448,-259 442.238,-253.246 435.039,-248.616 427.628,-244.927"/>
<polygon fill="none" stroke="black" points="428.778,-241.608 418.218,-240.743 425.934,-248.004 428.778,-241.608"/>
</g>
<!-- \\Resource -->
<g id="node50" class="node"><title>\\Resource</title>
<polygon fill="none" stroke="black" points="613.5,-412 554.5,-412 554.5,-376 613.5,-376 613.5,-412"/>
<text text-anchor="middle" x="584" y="-391.2" font-family="Times,serif" font-size="11.00">Resource</text>
</g>
<!-- \\Resource&#45;&gt;\\AppModel -->
<g id="edge48" class="edge"><title>\\Resource&#45;&gt;\\AppModel</title>
<path fill="none" stroke="black" d="M554.402,-385.721C542.873,-381.421 529.972,-375.295 520,-367 475.649,-330.108 492.132,-296.153 448,-259 441.895,-253.861 434.657,-249.532 427.339,-245.949"/>
<polygon fill="none" stroke="black" points="428.661,-242.706 418.104,-241.806 425.795,-249.093 428.661,-242.706"/>
</g>
<!-- \\Article -->
<g id="node51" class="node"><title>\\Article</title>
<polygon fill="none" stroke="black" points="611,-358 557,-358 557,-322 611,-322 611,-358"/>
<text text-anchor="middle" x="584" y="-337.2" font-family="Times,serif" font-size="11.00">Article</text>
</g>
<!-- \\Article&#45;&gt;\\AppModel -->
<g id="edge49" class="edge"><title>\\Article&#45;&gt;\\AppModel</title>
<path fill="none" stroke="black" d="M556.885,-330.438C545.28,-325.78 531.641,-319.73 520,-313 485.371,-292.979 482.51,-279.225 448,-259 441.543,-255.216 434.458,-251.621 427.475,-248.362"/>
<polygon fill="none" stroke="black" points="428.639,-245.048 418.083,-244.14 425.768,-251.433 428.639,-245.048"/>
</g>
<!-- \\Setting -->
<g id="node52" class="node"><title>\\Setting</title>
<polygon fill="none" stroke="black" points="611,-304 557,-304 557,-268 611,-268 611,-304"/>
<text text-anchor="middle" x="584" y="-283.2" font-family="Times,serif" font-size="11.00">Setting</text>
</g>
<!-- \\Setting&#45;&gt;\\AppModel -->
<g id="edge50" class="edge"><title>\\Setting&#45;&gt;\\AppModel</title>
<path fill="none" stroke="black" d="M556.973,-278.829C524.09,-269.77 467.112,-254.072 428.27,-243.37"/>
<polygon fill="none" stroke="black" points="428.891,-239.911 418.321,-240.629 427.032,-246.66 428.891,-239.911"/>
</g>
<!-- \\Type -->
<g id="node53" class="node"><title>\\Type</title>
<polygon fill="none" stroke="black" points="611,-250 557,-250 557,-214 611,-214 611,-250"/>
<text text-anchor="middle" x="584" y="-229.2" font-family="Times,serif" font-size="11.00">Type</text>
</g>
<!-- \\Type&#45;&gt;\\AppModel -->
<g id="edge51" class="edge"><title>\\Type&#45;&gt;\\AppModel</title>
<path fill="none" stroke="black" d="M556.973,-232C524.23,-232 467.597,-232 428.766,-232"/>
<polygon fill="none" stroke="black" points="428.321,-228.5 418.321,-232 428.321,-235.5 428.321,-228.5"/>
</g>
<!-- \\Role -->
<g id="node54" class="node"><title>\\Role</title>
<polygon fill="none" stroke="black" points="611,-1546 557,-1546 557,-1510 611,-1510 611,-1546"/>
<text text-anchor="middle" x="584" y="-1525.2" font-family="Times,serif" font-size="11.00">Role</text>
</g>
<!-- \\Role&#45;&gt;\\AppModel -->
<g id="edge52" class="edge"><title>\\Role&#45;&gt;\\AppModel</title>
<path fill="none" stroke="black" d="M556.784,-1523.5C543.522,-1519.79 528.476,-1513.08 520,-1501 361.192,-1274.7 605.469,-486.234 448,-259 442.974,-251.748 435.537,-246.421 427.569,-242.515"/>
<polygon fill="none" stroke="black" points="428.66,-239.178 418.084,-238.554 425.963,-245.637 428.66,-239.178"/>
</g>
<!-- \\Study -->
<g id="node55" class="node"><title>\\Study</title>
<polygon fill="none" stroke="black" points="611,-1492 557,-1492 557,-1456 611,-1456 611,-1492"/>
<text text-anchor="middle" x="584" y="-1471.2" font-family="Times,serif" font-size="11.00">Study</text>
</g>
<!-- \\Study&#45;&gt;\\AppModel -->
<g id="edge53" class="edge"><title>\\Study&#45;&gt;\\AppModel</title>
<path fill="none" stroke="black" d="M556.797,-1469.49C543.538,-1465.78 528.492,-1459.07 520,-1447 367.789,-1230.7 598.931,-476.19 448,-259 442.965,-251.754 435.524,-246.43 427.555,-242.525"/>
<polygon fill="none" stroke="black" points="428.647,-239.188 418.07,-238.563 425.949,-245.647 428.647,-239.188"/>
</g>
<!-- \\Marker -->
<g id="node56" class="node"><title>\\Marker</title>
<polygon fill="none" stroke="black" points="611,-1438 557,-1438 557,-1402 611,-1402 611,-1438"/>
<text text-anchor="middle" x="584" y="-1417.2" font-family="Times,serif" font-size="11.00">Marker</text>
</g>
<!-- \\Marker&#45;&gt;\\AppModel -->
<g id="edge54" class="edge"><title>\\Marker&#45;&gt;\\AppModel</title>
<path fill="none" stroke="black" d="M556.811,-1415.48C543.556,-1411.77 528.509,-1405.05 520,-1393 374.385,-1186.71 592.395,-466.148 448,-259 442.954,-251.762 435.509,-246.44 427.54,-242.536"/>
<polygon fill="none" stroke="black" points="428.632,-239.199 418.055,-238.573 425.933,-245.658 428.632,-239.199"/>
</g>
<!-- \\Iface -->
<g id="node57" class="node"><title>\\Iface</title>
<polygon fill="none" stroke="black" points="611,-1384 557,-1384 557,-1348 611,-1348 611,-1384"/>
<text text-anchor="middle" x="584" y="-1363.2" font-family="Times,serif" font-size="11.00">Iface</text>
</g>
<!-- \\Iface&#45;&gt;\\AppModel -->
<g id="edge55" class="edge"><title>\\Iface&#45;&gt;\\AppModel</title>
<path fill="none" stroke="black" d="M556.826,-1361.47C543.576,-1357.75 528.528,-1351.04 520,-1339 380.98,-1142.71 585.859,-456.107 448,-259 442.943,-251.77 435.493,-246.451 427.523,-242.548"/>
<polygon fill="none" stroke="black" points="428.615,-239.211 418.039,-238.585 425.917,-245.67 428.615,-239.211"/>
</g>
<!-- \\Rosbridge -->
<g id="node58" class="node"><title>\\Rosbridge</title>
<polygon fill="none" stroke="black" points="615,-1330 553,-1330 553,-1294 615,-1294 615,-1330"/>
<text text-anchor="middle" x="584" y="-1309.2" font-family="Times,serif" font-size="11.00">Rosbridge</text>
</g>
<!-- \\Rosbridge&#45;&gt;\\AppModel -->
<g id="edge56" class="edge"><title>\\Rosbridge&#45;&gt;\\AppModel</title>
<path fill="none" stroke="black" d="M552.954,-1306.29C540.746,-1302.39 527.722,-1295.86 520,-1285 387.574,-1098.71 579.324,-446.067 448,-259 442.93,-251.778 435.475,-246.464 427.504,-242.561"/>
<polygon fill="none" stroke="black" points="428.597,-239.224 418.021,-238.598 425.898,-245.683 428.597,-239.224"/>
</g>
<!-- \\Mjpeg -->
<g id="node59" class="node"><title>\\Mjpeg</title>
<polygon fill="none" stroke="black" points="611,-1276 557,-1276 557,-1240 611,-1240 611,-1276"/>
<text text-anchor="middle" x="584" y="-1255.2" font-family="Times,serif" font-size="11.00">Mjpeg</text>
</g>
<!-- \\Mjpeg&#45;&gt;\\AppModel -->
<g id="edge57" class="edge"><title>\\Mjpeg&#45;&gt;\\AppModel</title>
<path fill="none" stroke="black" d="M556.861,-1253.45C543.621,-1249.72 528.573,-1243.01 520,-1231 394.166,-1054.71 572.79,-436.029 448,-259 442.916,-251.788 435.456,-246.478 427.483,-242.575"/>
<polygon fill="none" stroke="black" points="428.577,-239.239 418.001,-238.612 425.877,-245.698 428.577,-239.239"/>
</g>
<!-- \\RmsHelper -->
<g id="node60" class="node"><title>\\RmsHelper</title>
<polygon fill="none" stroke="black" points="618,-142 550,-142 550,-106 618,-106 618,-142"/>
<text text-anchor="middle" x="584" y="-121.2" font-family="Times,serif" font-size="11.00">RmsHelper</text>
</g>
<!-- \\Helper -->
<g id="node65" class="node"><title>\\Helper</title>
<ellipse fill="none" stroke="black" cx="386" cy="-72" rx="37.0935" ry="18"/>
<text text-anchor="middle" x="386" y="-68.3" font-family="Times,serif" font-size="14.00" fill="gray">\Helper</text>
</g>
<!-- \\RmsHelper&#45;&gt;\\Helper -->
<g id="edge58" class="edge"><title>\\RmsHelper&#45;&gt;\\Helper</title>
<path fill="none" stroke="black" d="M549.751,-115.179C516.307,-106.306 464.653,-92.6019 428.533,-83.019"/>
<polygon fill="none" stroke="black" points="429.349,-79.6143 418.785,-80.4328 427.553,-86.3802 429.349,-79.6143"/>
</g>
<!-- \\AppHelper -->
<g id="node61" class="node"><title>\\AppHelper</title>
<polygon fill="none" stroke="black" points="617,-196 551,-196 551,-160 617,-160 617,-196"/>
<text text-anchor="start" x="561" y="-181.2" font-family="Times,serif" font-size="11.00">«abstract»</text>
<text text-anchor="start" x="559" y="-169.2" font-family="Times,serif" font-size="11.00">AppHelper</text>
</g>
<!-- \\AppHelper&#45;&gt;\\Helper -->
<g id="edge59" class="edge"><title>\\AppHelper&#45;&gt;\\Helper</title>
<path fill="none" stroke="black" d="M550.789,-166.125C540.656,-161.886 529.61,-156.725 520,-151 484.936,-130.112 483.662,-113.849 448,-94 441.643,-90.4617 434.608,-87.3078 427.643,-84.5698"/>
<polygon fill="none" stroke="black" points="428.851,-81.2851 418.258,-81.0968 426.422,-87.85 428.851,-81.2851"/>
</g>
</g>
</svg>
