<?xml version="1.0" encoding="UTF-8" standalone="no"?>
<!DOCTYPE svg PUBLIC "-//W3C//DTD SVG 1.1//EN"
 "http://www.w3.org/Graphics/SVG/1.1/DTD/svg11.dtd">
<!-- Generated by graphviz version 2.36.0 (20140111.2315)
 -->
<!-- Title: G Pages: 1 -->
<svg width="796pt" height="1914pt"
 viewBox="0.00 0.00 796.00 1914.00" xmlns="http://www.w3.org/2000/svg" xmlns:xlink="http://www.w3.org/1999/xlink">
<g id="graph0" class="graph" transform="scale(1 1) rotate(0) translate(4 1910)">
<title>G</title>
<polygon fill="white" stroke="none" points="-4,4 -4,-1910 792,-1910 792,4 -4,4"/>
<g id="clust1" class="cluster"><title>cluster_Global</title>
<path fill="none" stroke="gray" d="M176,-98C176,-98 768,-98 768,-98 774,-98 780,-104 780,-110 780,-110 780,-1886 780,-1886 780,-1892 774,-1898 768,-1898 768,-1898 176,-1898 176,-1898 170,-1898 164,-1892 164,-1886 164,-1886 164,-110 164,-110 164,-104 170,-98 176,-98"/>
<text text-anchor="middle" x="472" y="-1885.2" font-family="Times,serif" font-size="11.00" fill="gray">Global</text>
</g>
<!-- \\Marker -->
<g id="node1" class="node"><title>\\Marker</title>
<polygon fill="none" stroke="black" points="710.5,-1492 653.5,-1492 653.5,-1456 710.5,-1456 710.5,-1492"/>
<text text-anchor="middle" x="682" y="-1471.2" font-family="Courier,monospace" font-size="11.00">Marker</text>
</g>
<!-- \\AppModel -->
<g id="node14" class="node"><title>\\AppModel</title>
<polygon fill="none" stroke="black" points="469.5,-358 398.5,-358 398.5,-322 469.5,-322 469.5,-358"/>
<text text-anchor="middle" x="434" y="-337.2" font-family="Courier,monospace" font-size="11.00">AppModel</text>
</g>
<!-- \\Marker&#45;&gt;\\AppModel -->
<g id="edge1" class="edge"><title>\\Marker&#45;&gt;\\AppModel</title>
<path fill="none" stroke="black" d="M653.106,-1473.47C632.817,-1471.47 606.464,-1465.2 592,-1447 442.367,-1258.68 668.404,-556.294 520,-367 510.204,-354.505 494.619,-347.688 479.453,-344.005"/>
<polygon fill="none" stroke="black" points="480.109,-340.567 469.613,-342.009 478.718,-347.427 480.109,-340.567"/>
</g>
<!-- \\Collada -->
<g id="node2" class="node"><title>\\Collada</title>
<polygon fill="none" stroke="black" points="714,-1438 650,-1438 650,-1402 714,-1402 714,-1438"/>
<text text-anchor="middle" x="682" y="-1417.2" font-family="Courier,monospace" font-size="11.00">Collada</text>
</g>
<!-- \\Collada&#45;&gt;\\AppModel -->
<g id="edge2" class="edge"><title>\\Collada&#45;&gt;\\AppModel</title>
<path fill="none" stroke="black" d="M649.691,-1419.08C629.953,-1416.72 605.691,-1410.17 592,-1393 449.502,-1214.3 661.331,-546.626 520,-367 510.183,-354.523 494.593,-347.709 479.43,-344.024"/>
<polygon fill="none" stroke="black" points="480.089,-340.586 469.592,-342.026 478.696,-347.446 480.089,-340.586"/>
</g>
<!-- \\Article -->
<g id="node3" class="node"><title>\\Article</title>
<polygon fill="none" stroke="black" points="714,-1384 650,-1384 650,-1348 714,-1348 714,-1384"/>
<text text-anchor="middle" x="682" y="-1363.2" font-family="Courier,monospace" font-size="11.00">Article</text>
</g>
<!-- \\Article&#45;&gt;\\AppModel -->
<g id="edge3" class="edge"><title>\\Article&#45;&gt;\\AppModel</title>
<path fill="none" stroke="black" d="M649.713,-1365.06C629.985,-1362.69 605.724,-1356.14 592,-1339 456.636,-1169.92 654.26,-536.96 520,-367 510.158,-354.542 494.564,-347.732 479.404,-344.044"/>
<polygon fill="none" stroke="black" points="480.066,-340.607 469.569,-342.044 478.671,-347.467 480.066,-340.607"/>
</g>
<!-- \\Rosbridge -->
<g id="node4" class="node"><title>\\Rosbridge</title>
<polygon fill="none" stroke="black" points="720.5,-1330 643.5,-1330 643.5,-1294 720.5,-1294 720.5,-1330"/>
<text text-anchor="middle" x="682" y="-1309.2" font-family="Courier,monospace" font-size="11.00">Rosbridge</text>
</g>
<!-- \\Rosbridge&#45;&gt;\\AppModel -->
<g id="edge4" class="edge"><title>\\Rosbridge&#45;&gt;\\AppModel</title>
<path fill="none" stroke="black" d="M643.068,-1310.1C624.796,-1307.09 604.243,-1300.23 592,-1285 463.769,-1125.54 647.19,-527.295 520,-367 510.131,-354.563 494.532,-347.757 479.375,-344.067"/>
<polygon fill="none" stroke="black" points="480.041,-340.631 469.543,-342.064 478.643,-347.49 480.041,-340.631"/>
</g>
<!-- \\Setting -->
<g id="node5" class="node"><title>\\Setting</title>
<polygon fill="none" stroke="black" points="714,-1276 650,-1276 650,-1240 714,-1240 714,-1276"/>
<text text-anchor="middle" x="682" y="-1255.2" font-family="Courier,monospace" font-size="11.00">Setting</text>
</g>
<!-- \\Setting&#45;&gt;\\AppModel -->
<g id="edge5" class="edge"><title>\\Setting&#45;&gt;\\AppModel</title>
<path fill="none" stroke="black" d="M649.765,-1257.02C630.058,-1254.63 605.803,-1248.08 592,-1231 470.899,-1081.15 640.123,-517.634 520,-367 510.101,-354.587 494.495,-347.786 479.342,-344.093"/>
<polygon fill="none" stroke="black" points="480.012,-340.658 469.514,-342.087 478.612,-347.516 480.012,-340.658"/>
</g>
<!-- \\Mjpeg -->
<g id="node6" class="node"><title>\\Mjpeg</title>
<polygon fill="none" stroke="black" points="709,-1222 655,-1222 655,-1186 709,-1186 709,-1222"/>
<text text-anchor="middle" x="682" y="-1201.2" font-family="Courier,monospace" font-size="11.00">Mjpeg</text>
</g>
<!-- \\Mjpeg&#45;&gt;\\AppModel -->
<g id="edge6" class="edge"><title>\\Mjpeg&#45;&gt;\\AppModel</title>
<path fill="none" stroke="black" d="M654.892,-1203.54C634.463,-1201.67 607.072,-1195.54 592,-1177 478.027,-1036.76 633.058,-507.975 520,-367 510.24,-354.83 494.997,-348.058 480.099,-344.319"/>
<polygon fill="none" stroke="black" points="480.416,-340.809 469.911,-342.186 478.981,-347.661 480.416,-340.809"/>
</g>
<!-- \\Slot -->
<g id="node7" class="node"><title>\\Slot</title>
<polygon fill="none" stroke="black" points="709,-1168 655,-1168 655,-1132 709,-1132 709,-1168"/>
<text text-anchor="middle" x="682" y="-1147.2" font-family="Courier,monospace" font-size="11.00">Slot</text>
</g>
<!-- \\Slot&#45;&gt;\\AppModel -->
<g id="edge7" class="edge"><title>\\Slot&#45;&gt;\\AppModel</title>
<path fill="none" stroke="black" d="M654.923,-1149.51C634.512,-1147.63 607.13,-1141.5 592,-1123 378.303,-861.746 731.992,-629.64 520,-367 510.202,-354.861 494.951,-348.095 480.056,-344.353"/>
<polygon fill="none" stroke="black" points="480.379,-340.844 469.873,-342.216 478.941,-347.695 480.379,-340.844"/>
</g>
<!-- \\Environment -->
<g id="node8" class="node"><title>\\Environment</title>
<polygon fill="none" stroke="black" points="727.5,-1114 636.5,-1114 636.5,-1078 727.5,-1078 727.5,-1114"/>
<text text-anchor="middle" x="682" y="-1093.2" font-family="Courier,monospace" font-size="11.00">Environment</text>
</g>
<!-- \\Environment&#45;&gt;\\AppModel -->
<g id="edge8" class="edge"><title>\\Environment&#45;&gt;\\AppModel</title>
<path fill="none" stroke="black" d="M636.351,-1092.66C620.014,-1089.11 602.885,-1082.21 592,-1069 392.545,-826.955 717.875,-610.338 520,-367 510.158,-354.897 494.898,-348.138 480.008,-344.392"/>
<polygon fill="none" stroke="black" points="480.336,-340.885 469.83,-342.251 478.895,-347.735 480.336,-340.885"/>
</g>
<!-- \\Tf -->
<g id="node9" class="node"><title>\\Tf</title>
<polygon fill="none" stroke="black" points="709,-1060 655,-1060 655,-1024 709,-1024 709,-1060"/>
<text text-anchor="middle" x="682" y="-1039.2" font-family="Courier,monospace" font-size="11.00">Tf</text>
</g>
<!-- \\Tf&#45;&gt;\\AppModel -->
<g id="edge9" class="edge"><title>\\Tf&#45;&gt;\\AppModel</title>
<path fill="none" stroke="black" d="M654.587,-1041.41C634.265,-1039.45 607.172,-1033.25 592,-1015 406.778,-792.153 703.767,-591.049 520,-367 510.107,-354.939 494.836,-348.189 479.952,-344.438"/>
<polygon fill="none" stroke="black" points="480.287,-340.932 469.78,-342.292 478.842,-347.781 480.287,-340.932"/>
</g>
<!-- \\Im -->
<g id="node10" class="node"><title>\\Im</title>
<polygon fill="none" stroke="black" points="709,-1006 655,-1006 655,-970 709,-970 709,-1006"/>
<text text-anchor="middle" x="682" y="-985.2" font-family="Courier,monospace" font-size="11.00">Im</text>
</g>
<!-- \\Im&#45;&gt;\\AppModel -->
<g id="edge10" class="edge"><title>\\Im&#45;&gt;\\AppModel</title>
<path fill="none" stroke="black" d="M654.636,-987.37C634.343,-985.382 607.263,-979.178 592,-961 421,-757.336 689.671,-571.773 520,-367 510.047,-354.988 494.763,-348.249 479.885,-344.493"/>
<polygon fill="none" stroke="black" points="480.229,-340.988 469.721,-342.341 478.779,-347.836 480.229,-340.988"/>
</g>
<!-- \\Page -->
<g id="node11" class="node"><title>\\Page</title>
<polygon fill="none" stroke="black" points="709,-952 655,-952 655,-916 709,-916 709,-952"/>
<text text-anchor="middle" x="682" y="-931.2" font-family="Courier,monospace" font-size="11.00">Page</text>
</g>
<!-- \\Page&#45;&gt;\\AppModel -->
<g id="edge11" class="edge"><title>\\Page&#45;&gt;\\AppModel</title>
<path fill="none" stroke="black" d="M654.695,-933.321C634.435,-931.305 607.371,-925.087 592,-907 435.206,-722.502 675.59,-552.515 520,-367 509.976,-355.048 494.676,-348.321 479.807,-344.558"/>
<polygon fill="none" stroke="black" points="480.16,-341.055 469.651,-342.399 478.704,-347.902 480.16,-341.055"/>
</g>
<!-- \\User -->
<g id="node12" class="node"><title>\\User</title>
<polygon fill="none" stroke="black" points="709,-898 655,-898 655,-862 709,-862 709,-898"/>
<text text-anchor="middle" x="682" y="-877.2" font-family="Courier,monospace" font-size="11.00">User</text>
</g>
<!-- \\User&#45;&gt;\\AppModel -->
<g id="edge12" class="edge"><title>\\User&#45;&gt;\\AppModel</title>
<path fill="none" stroke="black" d="M654.766,-879.26C634.546,-877.209 607.502,-870.975 592,-853 449.392,-687.643 661.529,-533.282 520,-367 509.889,-355.121 494.571,-348.41 479.711,-344.639"/>
<polygon fill="none" stroke="black" points="480.077,-341.138 469.566,-342.471 478.614,-347.984 480.077,-341.138"/>
</g>
<!-- \\Protocol -->
<g id="node13" class="node"><title>\\Protocol</title>
<polygon fill="none" stroke="black" points="717.5,-844 646.5,-844 646.5,-808 717.5,-808 717.5,-844"/>
<text text-anchor="middle" x="682" y="-823.2" font-family="Courier,monospace" font-size="11.00">Protocol</text>
</g>
<!-- \\Protocol&#45;&gt;\\AppModel -->
<g id="edge13" class="edge"><title>\\Protocol&#45;&gt;\\AppModel</title>
<path fill="none" stroke="black" d="M646.287,-824.079C627.542,-821.173 605.532,-814.407 592,-799 463.55,-652.752 647.496,-514.081 520,-367 509.865,-355.308 494.689,-348.629 479.952,-344.832"/>
<polygon fill="none" stroke="black" points="480.404,-341.349 469.888,-342.638 478.913,-348.188 480.404,-341.349"/>
</g>
<!-- \\Model -->
<g id="node65" class="node"><title>\\Model</title>
<ellipse fill="none" stroke="black" cx="224" cy="-72" rx="36.2938" ry="18"/>
<text text-anchor="middle" x="224" y="-68.3" font-family="Times,serif" font-size="14.00" fill="gray">\Model</text>
</g>
<!-- \\AppModel&#45;&gt;\\Model -->
<g id="edge14" class="edge"><title>\\AppModel&#45;&gt;\\Model</title>
<path fill="none" stroke="black" d="M409.236,-321.805C390.655,-306.616 365.178,-283.553 348,-259 302.133,-193.441 332.695,-150.457 276,-94 272.761,-90.7744 268.972,-87.989 264.949,-85.5914"/>
<polygon fill="none" stroke="black" points="266.384,-82.3937 255.889,-80.9417 263.188,-88.6215 266.384,-82.3937"/>
</g>
<!-- \\Log -->
<g id="node15" class="node"><title>\\Log</title>
<polygon fill="none" stroke="black" points="709,-790 655,-790 655,-754 709,-754 709,-790"/>
<text text-anchor="middle" x="682" y="-769.2" font-family="Courier,monospace" font-size="11.00">Log</text>
</g>
<!-- \\Log&#45;&gt;\\AppModel -->
<g id="edge15" class="edge"><title>\\Log&#45;&gt;\\AppModel</title>
<path fill="none" stroke="black" d="M654.966,-771.084C634.858,-768.934 607.868,-762.652 592,-745 477.667,-617.815 633.503,-494.926 520,-367 509.73,-355.425 494.525,-348.773 479.803,-344.964"/>
<polygon fill="none" stroke="black" points="480.272,-341.483 469.754,-342.755 478.77,-348.32 480.272,-341.483"/>
</g>
<!-- \\Urdf -->
<g id="node16" class="node"><title>\\Urdf</title>
<polygon fill="none" stroke="black" points="709,-736 655,-736 655,-700 709,-700 709,-736"/>
<text text-anchor="middle" x="682" y="-715.2" font-family="Courier,monospace" font-size="11.00">Urdf</text>
</g>
<!-- \\Urdf&#45;&gt;\\AppModel -->
<g id="edge16" class="edge"><title>\\Urdf&#45;&gt;\\AppModel</title>
<path fill="none" stroke="black" d="M654.701,-716.906C634.72,-714.64 608.025,-708.29 592,-691 491.724,-582.811 619.569,-475.839 520,-367 509.555,-355.583 494.312,-348.965 479.608,-345.139"/>
<polygon fill="none" stroke="black" points="480.101,-341.664 469.58,-342.912 478.583,-348.497 480.101,-341.664"/>
</g>
<!-- \\Type -->
<g id="node17" class="node"><title>\\Type</title>
<polygon fill="none" stroke="black" points="709,-682 655,-682 655,-646 709,-646 709,-682"/>
<text text-anchor="middle" x="682" y="-661.2" font-family="Courier,monospace" font-size="11.00">Type</text>
</g>
<!-- \\Type&#45;&gt;\\AppModel -->
<g id="edge17" class="edge"><title>\\Type&#45;&gt;\\AppModel</title>
<path fill="none" stroke="black" d="M654.9,-662.717C635.028,-660.348 608.384,-653.95 592,-637 505.685,-547.704 605.732,-456.856 520,-367 509.405,-355.895 494.271,-349.342 479.702,-345.481"/>
<polygon fill="none" stroke="black" points="480.296,-342.027 469.768,-343.215 478.739,-348.851 480.296,-342.027"/>
</g>
<!-- \\Stream -->
<g id="node18" class="node"><title>\\Stream</title>
<polygon fill="none" stroke="black" points="710.5,-628 653.5,-628 653.5,-592 710.5,-592 710.5,-628"/>
<text text-anchor="middle" x="682" y="-607.2" font-family="Courier,monospace" font-size="11.00">Stream</text>
</g>
<!-- \\Stream&#45;&gt;\\AppModel -->
<g id="edge18" class="edge"><title>\\Stream&#45;&gt;\\AppModel</title>
<path fill="none" stroke="black" d="M653.134,-608.162C633.658,-605.456 608.316,-598.878 592,-583 519.479,-512.426 592.06,-438.045 520,-367 509.16,-356.313 494.11,-349.852 479.682,-345.948"/>
<polygon fill="none" stroke="black" points="480.389,-342.518 469.853,-343.633 478.784,-349.332 480.389,-342.518"/>
</g>
<!-- \\Condition -->
<g id="node19" class="node"><title>\\Condition</title>
<polygon fill="none" stroke="black" points="720.5,-574 643.5,-574 643.5,-538 720.5,-538 720.5,-574"/>
<text text-anchor="middle" x="682" y="-553.2" font-family="Courier,monospace" font-size="11.00">Condition</text>
</g>
<!-- \\Condition&#45;&gt;\\AppModel -->
<g id="edge19" class="edge"><title>\\Condition&#45;&gt;\\AppModel</title>
<path fill="none" stroke="black" d="M643.3,-551.826C625.965,-548.222 606.158,-541.507 592,-529 532.95,-476.836 578.709,-419.547 520,-367 508.859,-357.029 494.03,-350.738 479.879,-346.77"/>
<polygon fill="none" stroke="black" points="480.305,-343.27 469.757,-344.272 478.627,-350.067 480.305,-343.27"/>
</g>
<!-- \\Resource -->
<g id="node20" class="node"><title>\\Resource</title>
<polygon fill="none" stroke="black" points="717.5,-520 646.5,-520 646.5,-484 717.5,-484 717.5,-520"/>
<text text-anchor="middle" x="682" y="-499.2" font-family="Courier,monospace" font-size="11.00">Resource</text>
</g>
<!-- \\Resource&#45;&gt;\\AppModel -->
<g id="edge20" class="edge"><title>\\Resource&#45;&gt;\\AppModel</title>
<path fill="none" stroke="black" d="M646.374,-497.204C628.77,-493.426 607.816,-486.743 592,-475 545.682,-440.61 566.093,-401.691 520,-367 508.253,-358.159 493.527,-352.162 479.647,-348.115"/>
<polygon fill="none" stroke="black" points="480.306,-344.67 469.744,-345.501 478.519,-351.438 480.306,-344.67"/>
</g>
<!-- \\Subscription -->
<g id="node21" class="node"><title>\\Subscription</title>
<polygon fill="none" stroke="black" points="731,-466 633,-466 633,-430 731,-430 731,-466"/>
<text text-anchor="middle" x="682" y="-445.2" font-family="Courier,monospace" font-size="11.00">Subscription</text>
</g>
<!-- \\Subscription&#45;&gt;\\AppModel -->
<g id="edge21" class="edge"><title>\\Subscription&#45;&gt;\\AppModel</title>
<path fill="none" stroke="black" d="M632.695,-436.676C619.152,-432.62 604.675,-427.423 592,-421 556.32,-402.919 555.562,-385.313 520,-367 507.385,-360.504 492.91,-355.199 479.522,-351.064"/>
<polygon fill="none" stroke="black" points="480.127,-347.594 469.545,-348.131 478.152,-354.31 480.127,-347.594"/>
</g>
<!-- \\Email -->
<g id="node22" class="node"><title>\\Email</title>
<polygon fill="none" stroke="black" points="709,-1816 655,-1816 655,-1780 709,-1780 709,-1816"/>
<text text-anchor="middle" x="682" y="-1795.2" font-family="Courier,monospace" font-size="11.00">Email</text>
</g>
<!-- \\Email&#45;&gt;\\AppModel -->
<g id="edge22" class="edge"><title>\\Email&#45;&gt;\\AppModel</title>
<path fill="none" stroke="black" d="M654.706,-1797.69C634.168,-1795.91 606.722,-1789.82 592,-1771 399.534,-1524.92 710.86,-614.33 520,-367 510.3,-354.431 494.734,-347.599 479.557,-343.925"/>
<polygon fill="none" stroke="black" points="480.2,-340.484 469.705,-341.938 478.816,-347.346 480.2,-340.484"/>
</g>
<!-- \\Teleop -->
<g id="node23" class="node"><title>\\Teleop</title>
<polygon fill="none" stroke="black" points="710.5,-1762 653.5,-1762 653.5,-1726 710.5,-1726 710.5,-1762"/>
<text text-anchor="middle" x="682" y="-1741.2" font-family="Courier,monospace" font-size="11.00">Teleop</text>
</g>
<!-- \\Teleop&#45;&gt;\\AppModel -->
<g id="edge23" class="edge"><title>\\Teleop&#45;&gt;\\AppModel</title>
<path fill="none" stroke="black" d="M653.459,-1743.57C633.077,-1741.64 606.443,-1735.43 592,-1717 406.674,-1480.55 703.782,-604.655 520,-367 510.288,-354.441 494.719,-347.611 479.543,-343.935"/>
<polygon fill="none" stroke="black" points="480.188,-340.495 469.693,-341.947 478.803,-347.356 480.188,-340.495"/>
</g>
<!-- \\Appointment -->
<g id="node24" class="node"><title>\\Appointment</title>
<polygon fill="none" stroke="black" points="727.5,-1708 636.5,-1708 636.5,-1672 727.5,-1672 727.5,-1708"/>
<text text-anchor="middle" x="682" y="-1687.2" font-family="Courier,monospace" font-size="11.00">Appointment</text>
</g>
<!-- \\Appointment&#45;&gt;\\AppModel -->
<g id="edge24" class="edge"><title>\\Appointment&#45;&gt;\\AppModel</title>
<path fill="none" stroke="black" d="M636.494,-1687.02C619.972,-1683.53 602.673,-1676.59 592,-1663 413.815,-1436.17 696.705,-594.981 520,-367 510.274,-354.451 494.702,-347.624 479.528,-343.947"/>
<polygon fill="none" stroke="black" points="480.175,-340.507 469.68,-341.957 478.788,-347.368 480.175,-340.507"/>
</g>
<!-- \\Iface -->
<g id="node25" class="node"><title>\\Iface</title>
<polygon fill="none" stroke="black" points="709,-1654 655,-1654 655,-1618 709,-1618 709,-1654"/>
<text text-anchor="middle" x="682" y="-1633.2" font-family="Courier,monospace" font-size="11.00">Iface</text>
</g>
<!-- \\Iface&#45;&gt;\\AppModel -->
<g id="edge25" class="edge"><title>\\Iface&#45;&gt;\\AppModel</title>
<path fill="none" stroke="black" d="M654.739,-1635.66C634.221,-1633.87 606.785,-1627.77 592,-1609 420.954,-1391.8 689.628,-585.308 520,-367 510.259,-354.463 494.684,-347.638 479.512,-343.96"/>
<polygon fill="none" stroke="black" points="480.16,-340.52 469.665,-341.969 478.773,-347.381 480.16,-340.52"/>
</g>
<!-- \\Study -->
<g id="node26" class="node"><title>\\Study</title>
<polygon fill="none" stroke="black" points="709,-1600 655,-1600 655,-1564 709,-1564 709,-1600"/>
<text text-anchor="middle" x="682" y="-1579.2" font-family="Courier,monospace" font-size="11.00">Study</text>
</g>
<!-- \\Study&#45;&gt;\\AppModel -->
<g id="edge26" class="edge"><title>\\Study&#45;&gt;\\AppModel</title>
<path fill="none" stroke="black" d="M654.752,-1581.65C634.242,-1579.85 606.81,-1573.76 592,-1555 428.093,-1347.43 682.552,-575.635 520,-367 510.242,-354.476 494.664,-347.653 479.494,-343.973"/>
<polygon fill="none" stroke="black" points="480.145,-340.534 469.649,-341.981 478.756,-347.395 480.145,-340.534"/>
</g>
<!-- \\Role -->
<g id="node27" class="node"><title>\\Role</title>
<polygon fill="none" stroke="black" points="709,-1546 655,-1546 655,-1510 709,-1510 709,-1546"/>
<text text-anchor="middle" x="682" y="-1525.2" font-family="Courier,monospace" font-size="11.00">Role</text>
</g>
<!-- \\Role&#45;&gt;\\AppModel -->
<g id="edge27" class="edge"><title>\\Role&#45;&gt;\\AppModel</title>
<path fill="none" stroke="black" d="M654.767,-1527.64C634.265,-1525.83 606.837,-1519.73 592,-1501 435.23,-1303.05 675.478,-565.964 520,-367 510.224,-354.49 494.643,-347.67 479.475,-343.988"/>
<polygon fill="none" stroke="black" points="480.128,-340.55 469.632,-341.994 478.738,-347.41 480.128,-340.55"/>
</g>
<!-- \\AppHelper -->
<g id="node28" class="node"><title>\\AppHelper</title>
<polygon fill="none" stroke="black" points="724,-196 640,-196 640,-160 724,-160 724,-196"/>
<text text-anchor="start" x="648" y="-181.2" font-family="Courier,monospace" font-size="11.00">«abstract»</text>
<text text-anchor="start" x="651.5" y="-169.2" font-family="Courier,monospace" font-size="11.00">AppHelper</text>
</g>
<!-- \\Helper -->
<g id="node66" class="node"><title>\\Helper</title>
<ellipse fill="none" stroke="black" cx="434" cy="-72" rx="37.0935" ry="18"/>
<text text-anchor="middle" x="434" y="-68.3" font-family="Times,serif" font-size="14.00" fill="gray">\Helper</text>
</g>
<!-- \\AppHelper&#45;&gt;\\Helper -->
<g id="edge28" class="edge"><title>\\AppHelper&#45;&gt;\\Helper</title>
<path fill="none" stroke="black" d="M639.867,-168.982C624.357,-164.702 606.879,-158.786 592,-151 555.838,-132.077 556.545,-112.172 520,-94 507.492,-87.7803 493.047,-83.1944 479.654,-79.8696"/>
<polygon fill="none" stroke="black" points="480.198,-76.4033 469.668,-77.5668 478.625,-83.2243 480.198,-76.4033"/>
</g>
<!-- \\RmsHelper -->
<g id="node29" class="node"><title>\\RmsHelper</title>
<polygon fill="none" stroke="black" points="720.5,-142 643.5,-142 643.5,-106 720.5,-106 720.5,-142"/>
<text text-anchor="middle" x="682" y="-121.2" font-family="Courier,monospace" font-size="11.00">RmsHelper</text>
</g>
<!-- \\RmsHelper&#45;&gt;\\Helper -->
<g id="edge29" class="edge"><title>\\RmsHelper&#45;&gt;\\Helper</title>
<path fill="none" stroke="black" d="M643.37,-116.046C598.856,-106.636 524.905,-91.0042 478.121,-81.115"/>
<polygon fill="none" stroke="black" points="478.792,-77.6795 468.284,-79.0357 477.344,-84.5282 478.792,-77.6795"/>
</g>
<!-- \\EmailConfig -->
<g id="node30" class="node"><title>\\EmailConfig</title>
<polygon fill="none" stroke="black" points="727.5,-358 636.5,-358 636.5,-322 727.5,-322 727.5,-358"/>
<text text-anchor="middle" x="682" y="-337.2" font-family="Courier,monospace" font-size="11.00">EmailConfig</text>
</g>
<!-- \\DATABASE_CONFIG -->
<g id="node31" class="node"><title>\\DATABASE_CONFIG</title>
<polygon fill="none" stroke="black" points="741,-304 623,-304 623,-268 741,-268 741,-304"/>
<text text-anchor="middle" x="682" y="-283.2" font-family="Courier,monospace" font-size="11.00">DATABASE_CONFIG</text>
</g>
<!-- \\BasicInterfaceController -->
<g id="node32" class="node"><title>\\BasicInterfaceController</title>
<polygon fill="none" stroke="black" points="771.5,-1870 592.5,-1870 592.5,-1834 771.5,-1834 771.5,-1870"/>
<text text-anchor="middle" x="682" y="-1849.2" font-family="Courier,monospace" font-size="11.00">BasicInterfaceController</text>
</g>
<!-- \\InterfaceController -->
<g id="node48" class="node"><title>\\InterfaceController</title>
<polygon fill="none" stroke="black" points="506.5,-1762 361.5,-1762 361.5,-1726 506.5,-1726 506.5,-1762"/>
<text text-anchor="start" x="400" y="-1747.2" font-family="Courier,monospace" font-size="11.00">«abstract»</text>
<text text-anchor="start" x="369.5" y="-1735.2" font-family="Courier,monospace" font-size="11.00">InterfaceController</text>
</g>
<!-- \\BasicInterfaceController&#45;&gt;\\InterfaceController -->
<g id="edge30" class="edge"><title>\\BasicInterfaceController&#45;&gt;\\InterfaceController</title>
<path fill="none" stroke="black" d="M612.492,-1833.9C605.434,-1831.25 598.481,-1828.28 592,-1825 556.32,-1806.92 555.562,-1789.31 520,-1771 516.537,-1769.22 512.934,-1767.52 509.252,-1765.92"/>
<polygon fill="none" stroke="black" points="510.55,-1762.67 499.97,-1762.12 507.896,-1769.15 510.55,-1762.67"/>
</g>
<!-- \\StreamsController -->
<g id="node33" class="node"><title>\\StreamsController</title>
<polygon fill="none" stroke="black" points="499.5,-1708 368.5,-1708 368.5,-1672 499.5,-1672 499.5,-1708"/>
<text text-anchor="middle" x="434" y="-1687.2" font-family="Courier,monospace" font-size="11.00">StreamsController</text>
</g>
<!-- \\AppController -->
<g id="node51" class="node"><title>\\AppController</title>
<polygon fill="none" stroke="black" points="276,-1141 172,-1141 172,-1105 276,-1105 276,-1141"/>
<text text-anchor="start" x="190" y="-1126.2" font-family="Courier,monospace" font-size="11.00">«abstract»</text>
<text text-anchor="start" x="180" y="-1114.2" font-family="Courier,monospace" font-size="11.00">AppController</text>
</g>
<!-- \\StreamsController&#45;&gt;\\AppController -->
<g id="edge31" class="edge"><title>\\StreamsController&#45;&gt;\\AppController</title>
<path fill="none" stroke="black" d="M368.323,-1677.59C360.714,-1673.91 353.66,-1669.15 348,-1663 277.343,-1586.17 238.064,-1251.26 227.761,-1151.28"/>
<polygon fill="none" stroke="black" points="231.215,-1150.65 226.725,-1141.05 224.251,-1151.35 231.215,-1150.65"/>
</g>
<!-- \\GlobalController -->
<g id="node34" class="node"><title>\\GlobalController</title>
<polygon fill="none" stroke="black" points="496.5,-1654 371.5,-1654 371.5,-1618 496.5,-1618 496.5,-1654"/>
<text text-anchor="middle" x="434" y="-1633.2" font-family="Courier,monospace" font-size="11.00">GlobalController</text>
</g>
<!-- \\GlobalController&#45;&gt;\\AppController -->
<g id="edge32" class="edge"><title>\\GlobalController&#45;&gt;\\AppController</title>
<path fill="none" stroke="black" d="M371.451,-1624.84C362.692,-1621.01 354.476,-1615.87 348,-1609 283.848,-1540.9 240.699,-1244.43 228.52,-1151.18"/>
<polygon fill="none" stroke="black" points="231.968,-1150.56 227.219,-1141.09 225.026,-1151.45 231.968,-1150.56"/>
</g>
<!-- \\LogsController -->
<g id="node35" class="node"><title>\\LogsController</title>
<polygon fill="none" stroke="black" points="489.5,-1600 378.5,-1600 378.5,-1564 489.5,-1564 489.5,-1600"/>
<text text-anchor="middle" x="434" y="-1579.2" font-family="Courier,monospace" font-size="11.00">LogsController</text>
</g>
<!-- \\LogsController&#45;&gt;\\AppController -->
<g id="edge33" class="edge"><title>\\LogsController&#45;&gt;\\AppController</title>
<path fill="none" stroke="black" d="M378.18,-1573.25C367.015,-1569.26 356.194,-1563.45 348,-1555 235.429,-1438.98 224.517,-1227.58 224.439,-1151.35"/>
<polygon fill="none" stroke="black" points="227.94,-1151.13 224.495,-1141.11 220.94,-1151.09 227.94,-1151.13"/>
</g>
<!-- \\AppointmentsController -->
<g id="node36" class="node"><title>\\AppointmentsController</title>
<polygon fill="none" stroke="black" points="516.5,-1546 351.5,-1546 351.5,-1510 516.5,-1510 516.5,-1546"/>
<text text-anchor="middle" x="434" y="-1525.2" font-family="Courier,monospace" font-size="11.00">AppointmentsController</text>
</g>
<!-- \\AppointmentsController&#45;&gt;\\AppController -->
<g id="edge34" class="edge"><title>\\AppointmentsController&#45;&gt;\\AppController</title>
<path fill="none" stroke="black" d="M359.33,-1509.93C355.233,-1507.34 351.406,-1504.38 348,-1501 248.294,-1401.99 229.383,-1221.36 225.818,-1151.58"/>
<polygon fill="none" stroke="black" points="229.305,-1151.19 225.368,-1141.36 222.312,-1151.5 229.305,-1151.19"/>
</g>
<!-- \\StudiesController -->
<g id="node37" class="node"><title>\\StudiesController</title>
<polygon fill="none" stroke="black" points="499.5,-1492 368.5,-1492 368.5,-1456 499.5,-1456 499.5,-1492"/>
<text text-anchor="middle" x="434" y="-1471.2" font-family="Courier,monospace" font-size="11.00">StudiesController</text>
</g>
<!-- \\StudiesController&#45;&gt;\\AppController -->
<g id="edge35" class="edge"><title>\\StudiesController&#45;&gt;\\AppController</title>
<path fill="none" stroke="black" d="M368.238,-1460.43C360.828,-1456.93 353.848,-1452.53 348,-1447 260.803,-1364.49 234.811,-1213.79 227.586,-1151.3"/>
<polygon fill="none" stroke="black" points="231.031,-1150.61 226.479,-1141.04 224.072,-1151.36 231.031,-1150.61"/>
</g>
<!-- \\MjpegsController -->
<g id="node38" class="node"><title>\\MjpegsController</title>
<polygon fill="none" stroke="black" points="496.5,-1438 371.5,-1438 371.5,-1402 496.5,-1402 496.5,-1438"/>
<text text-anchor="middle" x="434" y="-1417.2" font-family="Courier,monospace" font-size="11.00">MjpegsController</text>
</g>
<!-- \\MjpegsController&#45;&gt;\\AppController -->
<g id="edge36" class="edge"><title>\\MjpegsController&#45;&gt;\\AppController</title>
<path fill="none" stroke="black" d="M371.171,-1407.22C362.757,-1403.6 354.719,-1398.96 348,-1393 273.209,-1326.68 241.128,-1205.75 229.982,-1151.12"/>
<polygon fill="none" stroke="black" points="233.379,-1150.26 228.026,-1141.11 226.509,-1151.6 233.379,-1150.26"/>
</g>
<!-- \\ExperimentController -->
<g id="node39" class="node"><title>\\ExperimentController</title>
<polygon fill="none" stroke="black" points="510,-1384 358,-1384 358,-1348 510,-1348 510,-1384"/>
<text text-anchor="middle" x="434" y="-1363.2" font-family="Courier,monospace" font-size="11.00">ExperimentController</text>
</g>
<!-- \\ExperimentController&#45;&gt;\\AppController -->
<g id="edge37" class="edge"><title>\\ExperimentController&#45;&gt;\\AppController</title>
<path fill="none" stroke="black" d="M361.75,-1348C356.862,-1345.39 352.213,-1342.41 348,-1339 285.314,-1288.27 248.606,-1196.51 233.351,-1150.65"/>
<polygon fill="none" stroke="black" points="236.661,-1149.51 230.256,-1141.07 230,-1151.66 236.661,-1149.51"/>
</g>
<!-- \\SubscriptionsController -->
<g id="node40" class="node"><title>\\SubscriptionsController</title>
<polygon fill="none" stroke="black" points="520,-1330 348,-1330 348,-1294 520,-1294 520,-1330"/>
<text text-anchor="middle" x="434" y="-1309.2" font-family="Courier,monospace" font-size="11.00">SubscriptionsController</text>
</g>
<!-- \\SubscriptionsController&#45;&gt;\\AppController -->
<g id="edge38" class="edge"><title>\\SubscriptionsController&#45;&gt;\\AppController</title>
<path fill="none" stroke="black" d="M363.521,-1293.99C358.061,-1291.37 352.807,-1288.39 348,-1285 297.278,-1249.21 258.217,-1186.18 238.72,-1150.2"/>
<polygon fill="none" stroke="black" points="241.745,-1148.44 233.967,-1141.24 235.561,-1151.72 241.745,-1148.44"/>
</g>
<!-- \\EmailsController -->
<g id="node41" class="node"><title>\\EmailsController</title>
<polygon fill="none" stroke="black" points="496.5,-1276 371.5,-1276 371.5,-1240 496.5,-1240 496.5,-1276"/>
<text text-anchor="middle" x="434" y="-1255.2" font-family="Courier,monospace" font-size="11.00">EmailsController</text>
</g>
<!-- \\EmailsController&#45;&gt;\\AppController -->
<g id="edge39" class="edge"><title>\\EmailsController&#45;&gt;\\AppController</title>
<path fill="none" stroke="black" d="M371.349,-1241.78C363.272,-1238.69 355.28,-1235.11 348,-1231 308.925,-1208.93 271.256,-1173 248.126,-1148.7"/>
<polygon fill="none" stroke="black" points="250.536,-1146.15 241.144,-1141.25 245.429,-1150.94 250.536,-1146.15"/>
</g>
<!-- \\ResourcesController -->
<g id="node42" class="node"><title>\\ResourcesController</title>
<polygon fill="none" stroke="black" points="506.5,-1222 361.5,-1222 361.5,-1186 506.5,-1186 506.5,-1222"/>
<text text-anchor="middle" x="434" y="-1201.2" font-family="Courier,monospace" font-size="11.00">ResourcesController</text>
</g>
<!-- \\ResourcesController&#45;&gt;\\AppController -->
<g id="edge40" class="edge"><title>\\ResourcesController&#45;&gt;\\AppController</title>
<path fill="none" stroke="black" d="M373.278,-1185.91C364.744,-1183.07 356.113,-1180.06 348,-1177 322.796,-1167.5 295.298,-1155.57 272.705,-1145.35"/>
<polygon fill="none" stroke="black" points="273.895,-1142.05 263.344,-1141.09 270.993,-1148.42 273.895,-1142.05"/>
</g>
<!-- \\MarkersController -->
<g id="node43" class="node"><title>\\MarkersController</title>
<polygon fill="none" stroke="black" points="499.5,-1168 368.5,-1168 368.5,-1132 499.5,-1132 499.5,-1168"/>
<text text-anchor="middle" x="434" y="-1147.2" font-family="Courier,monospace" font-size="11.00">MarkersController</text>
</g>
<!-- \\MarkersController&#45;&gt;\\AppController -->
<g id="edge41" class="edge"><title>\\MarkersController&#45;&gt;\\AppController</title>
<path fill="none" stroke="black" d="M368.328,-1141.61C342.113,-1138.2 311.988,-1134.29 286.144,-1130.94"/>
<polygon fill="none" stroke="black" points="286.464,-1127.45 276.097,-1129.63 285.563,-1134.39 286.464,-1127.45"/>
</g>
<!-- \\UsersController -->
<g id="node44" class="node"><title>\\UsersController</title>
<polygon fill="none" stroke="black" points="493,-1114 375,-1114 375,-1078 493,-1078 493,-1114"/>
<text text-anchor="middle" x="434" y="-1093.2" font-family="Courier,monospace" font-size="11.00">UsersController</text>
</g>
<!-- \\UsersController&#45;&gt;\\AppController -->
<g id="edge42" class="edge"><title>\\UsersController&#45;&gt;\\AppController</title>
<path fill="none" stroke="black" d="M374.784,-1103.56C347.168,-1107.14 314.171,-1111.42 286.185,-1115.06"/>
<polygon fill="none" stroke="black" points="285.587,-1111.61 276.121,-1116.36 286.488,-1118.55 285.587,-1111.61"/>
</g>
<!-- \\WidgetController -->
<g id="node45" class="node"><title>\\WidgetController</title>
<polygon fill="none" stroke="black" points="496.5,-1060 371.5,-1060 371.5,-1024 496.5,-1024 496.5,-1060"/>
<text text-anchor="middle" x="434" y="-1039.2" font-family="Courier,monospace" font-size="11.00">WidgetController</text>
</g>
<!-- \\WidgetController&#45;&gt;\\AppController -->
<g id="edge43" class="edge"><title>\\WidgetController&#45;&gt;\\AppController</title>
<path fill="none" stroke="black" d="M373.278,-1060.09C364.744,-1062.93 356.113,-1065.94 348,-1069 322.796,-1078.5 295.298,-1090.43 272.705,-1100.65"/>
<polygon fill="none" stroke="black" points="270.993,-1097.58 263.344,-1104.91 273.895,-1103.95 270.993,-1097.58"/>
</g>
<!-- \\SettingsController -->
<g id="node46" class="node"><title>\\SettingsController</title>
<polygon fill="none" stroke="black" points="503,-1006 365,-1006 365,-970 503,-970 503,-1006"/>
<text text-anchor="middle" x="434" y="-985.2" font-family="Courier,monospace" font-size="11.00">SettingsController</text>
</g>
<!-- \\SettingsController&#45;&gt;\\AppController -->
<g id="edge44" class="edge"><title>\\SettingsController&#45;&gt;\\AppController</title>
<path fill="none" stroke="black" d="M366.429,-1006.17C360.045,-1008.79 353.797,-1011.73 348,-1015 308.925,-1037.07 271.256,-1073 248.126,-1097.3"/>
<polygon fill="none" stroke="black" points="245.429,-1095.06 241.144,-1104.75 250.536,-1099.85 245.429,-1095.06"/>
</g>
<!-- \\SlotsController -->
<g id="node47" class="node"><title>\\SlotsController</title>
<polygon fill="none" stroke="black" points="493,-952 375,-952 375,-916 493,-916 493,-952"/>
<text text-anchor="middle" x="434" y="-931.2" font-family="Courier,monospace" font-size="11.00">SlotsController</text>
</g>
<!-- \\SlotsController&#45;&gt;\\AppController -->
<g id="edge45" class="edge"><title>\\SlotsController&#45;&gt;\\AppController</title>
<path fill="none" stroke="black" d="M374.945,-947.14C365.458,-950.743 356.097,-955.287 348,-961 297.278,-996.79 258.217,-1059.82 238.72,-1095.8"/>
<polygon fill="none" stroke="black" points="235.561,-1094.28 233.967,-1104.76 241.745,-1097.56 235.561,-1094.28"/>
</g>
<!-- \\InterfaceController&#45;&gt;\\AppController -->
<g id="edge46" class="edge"><title>\\InterfaceController&#45;&gt;\\AppController</title>
<path fill="none" stroke="black" d="M361.236,-1727.87C356.339,-1724.84 351.836,-1721.25 348,-1717 270.78,-1631.35 235.664,-1257.54 227.126,-1151.27"/>
<polygon fill="none" stroke="black" points="230.593,-1150.71 226.319,-1141.02 223.615,-1151.26 230.593,-1150.71"/>
</g>
<!-- \\RosbridgesController -->
<g id="node49" class="node"><title>\\RosbridgesController</title>
<polygon fill="none" stroke="black" points="510,-898 358,-898 358,-862 510,-862 510,-898"/>
<text text-anchor="middle" x="434" y="-877.2" font-family="Courier,monospace" font-size="11.00">RosbridgesController</text>
</g>
<!-- \\RosbridgesController&#45;&gt;\\AppController -->
<g id="edge47" class="edge"><title>\\RosbridgesController&#45;&gt;\\AppController</title>
<path fill="none" stroke="black" d="M361.75,-898.002C356.862,-900.609 352.213,-903.591 348,-907 285.314,-957.728 248.606,-1049.49 233.351,-1095.35"/>
<polygon fill="none" stroke="black" points="230,-1094.34 230.256,-1104.93 236.661,-1096.49 230,-1094.34"/>
</g>
<!-- \\TfsController -->
<g id="node50" class="node"><title>\\TfsController</title>
<polygon fill="none" stroke="black" points="486,-844 382,-844 382,-808 486,-808 486,-844"/>
<text text-anchor="middle" x="434" y="-823.2" font-family="Courier,monospace" font-size="11.00">TfsController</text>
</g>
<!-- \\TfsController&#45;&gt;\\AppController -->
<g id="edge48" class="edge"><title>\\TfsController&#45;&gt;\\AppController</title>
<path fill="none" stroke="black" d="M381.742,-834.789C369.634,-838.779 357.5,-844.576 348,-853 273.209,-919.322 241.128,-1040.25 229.982,-1094.88"/>
<polygon fill="none" stroke="black" points="226.509,-1094.4 228.026,-1104.89 233.379,-1095.74 226.509,-1094.4"/>
</g>
<!-- \\Controller -->
<g id="node67" class="node"><title>\\Controller</title>
<ellipse fill="none" stroke="black" cx="50" cy="-1123" rx="49.2915" ry="18"/>
<text text-anchor="middle" x="50" y="-1119.3" font-family="Times,serif" font-size="14.00" fill="gray">\Controller</text>
</g>
<!-- \\AppController&#45;&gt;\\Controller -->
<g id="edge49" class="edge"><title>\\AppController&#45;&gt;\\Controller</title>
<path fill="none" stroke="black" d="M171.86,-1123C152.291,-1123 129.824,-1123 109.611,-1123"/>
<polygon fill="none" stroke="black" points="109.583,-1119.5 99.5834,-1123 109.583,-1126.5 109.583,-1119.5"/>
</g>
<!-- \\TeleopsController -->
<g id="node52" class="node"><title>\\TeleopsController</title>
<polygon fill="none" stroke="black" points="499.5,-790 368.5,-790 368.5,-754 499.5,-754 499.5,-790"/>
<text text-anchor="middle" x="434" y="-769.2" font-family="Courier,monospace" font-size="11.00">TeleopsController</text>
</g>
<!-- \\TeleopsController&#45;&gt;\\AppController -->
<g id="edge50" class="edge"><title>\\TeleopsController&#45;&gt;\\AppController</title>
<path fill="none" stroke="black" d="M368.238,-785.569C360.828,-789.067 353.848,-793.466 348,-799 260.803,-881.508 234.811,-1032.21 227.586,-1094.7"/>
<polygon fill="none" stroke="black" points="224.072,-1094.64 226.479,-1104.96 231.031,-1095.39 224.072,-1094.64"/>
</g>
<!-- \\RosController -->
<g id="node53" class="node"><title>\\RosController</title>
<polygon fill="none" stroke="black" points="486,-736 382,-736 382,-700 486,-700 486,-736"/>
<text text-anchor="middle" x="434" y="-715.2" font-family="Courier,monospace" font-size="11.00">RosController</text>
</g>
<!-- \\RosController&#45;&gt;\\AppController -->
<g id="edge51" class="edge"><title>\\RosController&#45;&gt;\\AppController</title>
<path fill="none" stroke="black" d="M381.947,-725.776C369.553,-729.778 357.229,-735.836 348,-745 248.294,-844.008 229.383,-1024.64 225.818,-1094.42"/>
<polygon fill="none" stroke="black" points="222.312,-1094.5 225.368,-1104.64 229.305,-1094.81 222.312,-1094.5"/>
</g>
<!-- \\ImsController -->
<g id="node54" class="node"><title>\\ImsController</title>
<polygon fill="none" stroke="black" points="486,-682 382,-682 382,-646 486,-646 486,-682"/>
<text text-anchor="middle" x="434" y="-661.2" font-family="Courier,monospace" font-size="11.00">ImsController</text>
</g>
<!-- \\ImsController&#45;&gt;\\AppController -->
<g id="edge52" class="edge"><title>\\ImsController&#45;&gt;\\AppController</title>
<path fill="none" stroke="black" d="M381.714,-671.546C369.322,-675.55 357.057,-681.665 348,-691 235.429,-807.021 224.517,-1018.42 224.439,-1094.65"/>
<polygon fill="none" stroke="black" points="220.94,-1094.91 224.495,-1104.89 227.94,-1094.87 220.94,-1094.91"/>
</g>
<!-- \\ArticlesController -->
<g id="node55" class="node"><title>\\ArticlesController</title>
<polygon fill="none" stroke="black" points="503,-628 365,-628 365,-592 503,-592 503,-628"/>
<text text-anchor="middle" x="434" y="-607.2" font-family="Courier,monospace" font-size="11.00">ArticlesController</text>
</g>
<!-- \\ArticlesController&#45;&gt;\\AppController -->
<g id="edge53" class="edge"><title>\\ArticlesController&#45;&gt;\\AppController</title>
<path fill="none" stroke="black" d="M364.693,-624.454C358.502,-627.805 352.778,-631.928 348,-637 283.848,-705.1 240.699,-1001.57 228.52,-1094.82"/>
<polygon fill="none" stroke="black" points="225.026,-1094.55 227.219,-1104.91 231.968,-1095.44 225.026,-1094.55"/>
</g>
<!-- \\EnvironmentsController -->
<g id="node56" class="node"><title>\\EnvironmentsController</title>
<polygon fill="none" stroke="black" points="516.5,-574 351.5,-574 351.5,-538 516.5,-538 516.5,-574"/>
<text text-anchor="middle" x="434" y="-553.2" font-family="Courier,monospace" font-size="11.00">EnvironmentsController</text>
</g>
<!-- \\EnvironmentsController&#45;&gt;\\AppController -->
<g id="edge54" class="edge"><title>\\EnvironmentsController&#45;&gt;\\AppController</title>
<path fill="none" stroke="black" d="M358.195,-574.243C354.481,-576.792 351.04,-579.695 348,-583 277.343,-659.826 238.064,-994.74 227.761,-1094.72"/>
<polygon fill="none" stroke="black" points="224.251,-1094.65 226.725,-1104.95 231.215,-1095.35 224.251,-1094.65"/>
</g>
<!-- \\PagesController -->
<g id="node57" class="node"><title>\\PagesController</title>
<polygon fill="none" stroke="black" points="493,-520 375,-520 375,-484 493,-484 493,-520"/>
<text text-anchor="middle" x="434" y="-499.2" font-family="Courier,monospace" font-size="11.00">PagesController</text>
</g>
<!-- \\PagesController&#45;&gt;\\AppController -->
<g id="edge55" class="edge"><title>\\PagesController&#45;&gt;\\AppController</title>
<path fill="none" stroke="black" d="M374.648,-511.471C364.627,-515.446 355.154,-521.065 348,-529 270.78,-614.646 235.664,-988.461 227.126,-1094.73"/>
<polygon fill="none" stroke="black" points="223.615,-1094.74 226.319,-1104.98 230.593,-1095.29 223.615,-1094.74"/>
</g>
<!-- \\ConditionsController -->
<g id="node58" class="node"><title>\\ConditionsController</title>
<polygon fill="none" stroke="black" points="510,-466 358,-466 358,-430 510,-430 510,-466"/>
<text text-anchor="middle" x="434" y="-445.2" font-family="Courier,monospace" font-size="11.00">ConditionsController</text>
</g>
<!-- \\ConditionsController&#45;&gt;\\AppController -->
<g id="edge56" class="edge"><title>\\ConditionsController&#45;&gt;\\AppController</title>
<path fill="none" stroke="black" d="M358.052,-466.114C354.374,-468.695 350.979,-471.64 348,-475 264.186,-569.526 233.476,-982.51 226.594,-1094.76"/>
<polygon fill="none" stroke="black" points="223.088,-1094.75 225.984,-1104.95 230.075,-1095.17 223.088,-1094.75"/>
</g>
<!-- \\UrdfsController -->
<g id="node59" class="node"><title>\\UrdfsController</title>
<polygon fill="none" stroke="black" points="493,-412 375,-412 375,-376 493,-376 493,-412"/>
<text text-anchor="middle" x="434" y="-391.2" font-family="Courier,monospace" font-size="11.00">UrdfsController</text>
</g>
<!-- \\UrdfsController&#45;&gt;\\AppController -->
<g id="edge57" class="edge"><title>\\UrdfsController&#45;&gt;\\AppController</title>
<path fill="none" stroke="black" d="M374.887,-403.125C364.721,-407.123 355.133,-412.84 348,-421 257.583,-524.436 231.477,-976.655 226.144,-1094.72"/>
<polygon fill="none" stroke="black" points="222.645,-1094.64 225.705,-1104.78 229.638,-1094.94 222.645,-1094.64"/>
</g>
<!-- \\IfacesController -->
<g id="node60" class="node"><title>\\IfacesController</title>
<polygon fill="none" stroke="black" points="496.5,-1870 371.5,-1870 371.5,-1834 496.5,-1834 496.5,-1870"/>
<text text-anchor="middle" x="434" y="-1849.2" font-family="Courier,monospace" font-size="11.00">IfacesController</text>
</g>
<!-- \\IfacesController&#45;&gt;\\AppController -->
<g id="edge58" class="edge"><title>\\IfacesController&#45;&gt;\\AppController</title>
<path fill="none" stroke="black" d="M371.427,-1841.44C362.561,-1837.54 354.318,-1832.23 348,-1825 257.583,-1721.56 231.477,-1269.34 226.144,-1151.28"/>
<polygon fill="none" stroke="black" points="229.638,-1151.06 225.705,-1141.22 222.645,-1151.36 229.638,-1151.06"/>
</g>
<!-- \\ContentController -->
<g id="node61" class="node"><title>\\ContentController</title>
<polygon fill="none" stroke="black" points="499.5,-1816 368.5,-1816 368.5,-1780 499.5,-1780 499.5,-1816"/>
<text text-anchor="middle" x="434" y="-1795.2" font-family="Courier,monospace" font-size="11.00">ContentController</text>
</g>
<!-- \\ContentController&#45;&gt;\\AppController -->
<g id="edge59" class="edge"><title>\\ContentController&#45;&gt;\\AppController</title>
<path fill="none" stroke="black" d="M368.112,-1785.78C360.536,-1782.07 353.547,-1777.26 348,-1771 264.186,-1676.47 233.476,-1263.49 226.594,-1151.24"/>
<polygon fill="none" stroke="black" points="230.075,-1150.83 225.984,-1141.05 223.088,-1151.25 230.075,-1150.83"/>
</g>
<!-- \\AppShell -->
<g id="node62" class="node"><title>\\AppShell</title>
<polygon fill="none" stroke="black" points="469.5,-250 398.5,-250 398.5,-214 469.5,-214 469.5,-250"/>
<text text-anchor="middle" x="434" y="-229.2" font-family="Courier,monospace" font-size="11.00">AppShell</text>
</g>
<!-- \\Shell -->
<g id="node68" class="node"><title>\\Shell</title>
<ellipse fill="none" stroke="black" cx="224" cy="-18" rx="31.3957" ry="18"/>
<text text-anchor="middle" x="224" y="-14.3" font-family="Times,serif" font-size="14.00" fill="gray">\Shell</text>
</g>
<!-- \\AppShell&#45;&gt;\\Shell -->
<g id="edge60" class="edge"><title>\\AppShell&#45;&gt;\\Shell</title>
<path fill="none" stroke="black" d="M421.274,-213.781C397.439,-177.843 340.129,-96.8205 276,-45 270.66,-40.6848 264.524,-36.745 258.401,-33.2889"/>
<polygon fill="none" stroke="black" points="260.008,-30.1794 249.534,-28.584 256.727,-36.3629 260.008,-30.1794"/>
</g>
<!-- \\ReminderShell -->
<g id="node63" class="node"><title>\\ReminderShell</title>
<polygon fill="none" stroke="black" points="734,-250 630,-250 630,-214 734,-214 734,-250"/>
<text text-anchor="middle" x="682" y="-229.2" font-family="Courier,monospace" font-size="11.00">ReminderShell</text>
</g>
<!-- \\ReminderShell&#45;&gt;\\AppShell -->
<g id="edge61" class="edge"><title>\\ReminderShell&#45;&gt;\\AppShell</title>
<path fill="none" stroke="black" d="M629.73,-232C585.371,-232 521.879,-232 479.591,-232"/>
<polygon fill="none" stroke="black" points="479.586,-228.5 469.586,-232 479.586,-235.5 479.586,-228.5"/>
</g>
<!-- \\UpdateShell -->
<g id="node64" class="node"><title>\\UpdateShell</title>
<polygon fill="none" stroke="black" points="727.5,-412 636.5,-412 636.5,-376 727.5,-376 727.5,-412"/>
<text text-anchor="middle" x="682" y="-391.2" font-family="Courier,monospace" font-size="11.00">UpdateShell</text>
</g>
<!-- \\UpdateShell&#45;&gt;\\AppShell -->
<g id="edge62" class="edge"><title>\\UpdateShell&#45;&gt;\\AppShell</title>
<path fill="none" stroke="black" d="M636.081,-384.29C621.498,-380.127 605.586,-374.464 592,-367 563.836,-351.527 498.437,-291.823 461.548,-257.214"/>
<polygon fill="none" stroke="black" points="463.813,-254.54 454.132,-250.235 459.015,-259.637 463.813,-254.54"/>
</g>
</g>
</svg>
